<?xml version="1.0" encoding="UTF-8"?>
<svg id="Layer_1" xmlns="http://www.w3.org/2000/svg" version="1.1" viewBox="0 0 1920 1080">
  <!-- Generator: Adobe Illustrator 29.7.1, SVG Export Plug-In . SVG Version: 2.1.1 Build 8)  -->
  <path d="M1082.4,371.3l-12.4,39.2-66.3-115.2-324.2,535.2-23.3,16.2L1003.7,233.4l78.7,137.8ZM1189.8,618.7l22,38.2h-319.6l-16.6,30h387.1l-45.6-79.9-27.3,11.7ZM1260.6,360.3l3.2-16.2h-130.5l-36.6,119.2h54.5c53.1,0,73.8,18.6,73.8,49.2s-29.2,62.9-78.4,62.9-61.5-12.7-73.5-30.2l-10.9,13.4c14.1,20,44.7,33.4,83,33.4,59.8,0,97.8-31.6,97.8-81.2s-27.1-63.6-88.6-63.6h-35.2l27.1-86.9h114.3Z"/>
</svg>