<?xml version="1.0" encoding="UTF-8"?>
<svg id="Layer_1" xmlns="http://www.w3.org/2000/svg" version="1.1" viewBox="0 0 1920 1080">
  <!-- Generator: Adobe Illustrator 29.7.1, SVG Export Plug-In . SVG Version: 2.1.1 Build 8)  -->
  <path d="M269.9,483.6h-16.7c-5.6,0-10.2,4.6-10.2,10.2v105.8c0,5.6-4.6,10.2-10.2,10.2h-41.8c-5.6,0-10.2-4.6-10.2-10.2v-105.8c0-5.6-4.6-10.2-10.2-10.2h-16.7c-5.6,0-8.4-3.6-8.4-8s2.8-8,8.4-8h116c5.6,0,8.4,3.6,8.4,8s-2.8,8-8.4,8ZM541.9,467.6c-4,0-7.2,2.8-7.2,8.4v23.7c0,5.6-4.3,8.6-9.5,6.6l-94.5-35.1c-5.2-1.9-13.8-4.2-16.7-3.5-3.8.9-7.2,4.6-7.2,10.2v123.5c0,5.6,3.2,8.4,7.2,8.4s7.2-2.8,7.2-8.4v-23.9c0-5.6,4.3-8.6,9.5-6.6l94.5,35.3c5.2,2,12.7,3.6,16.7,3.6s7.2-4.6,7.2-10.2v-123.5c0-5.6-3.2-8.4-7.2-8.4ZM781.5,466.1c-40.1,0-72.6,32.5-72.6,72.6s32.5,72.6,72.6,72.6,72.6-32.5,72.6-72.6-32.5-72.6-72.6-72.6ZM635.2,516.5c-3.1,0-5.7-2.6-5.7-5.7v-39c0-3.1,0-5.7-.2-5.7h0c-40.1,0-72.6,32.5-72.6,72.6s32.5,72.6,72.6,72.6,72.6-32.5,72.6-72.6-2.1-16.6-2.1-16.6c-.7-3-3.9-5.5-7-5.5h-57.5ZM334.7,591.3c4.5,0,9.8,3.2,11.9,7.2l2.1,4c2.1,4,7.4,7.2,11.9,7.2h35.5c4.5,0,6.4-3.2,4.3-7.2l-69.7-132.2c-2.1-4-5.5-4-7.6,0l-69.7,132.2c-2.1,4-.1,7.2,4.4,7.2h2.9c4.5,0,8.9-1.3,10.9-5.2l3.1-6c2.1-4,7.5-7.2,11.9-7.2h48ZM978.4,528.1v77.8h9.3v-77.8h-9.3ZM912.7,528l-51.2,77.9h9.9l12.3-18.9,2.5-3.7h61.7l2.5,3.7,12.3,18.9h9.8l-51.1-77.9h-8.5ZM917,536.2l25.9,39.6h-51.8l25.9-39.6ZM1227.9,605.9h-43.7v-131.2h43.7c41.2,0,69.7,28.3,69.7,65.2v.4c0,36.9-28.5,65.6-69.7,65.6M1287.4,540.3c0-31.1-23-56.6-59.6-56.6h-33.9v113.2h33.9c36.5,0,59.6-24.9,59.6-56.2v-.4ZM1425,605.9v-9h-84.5v-52.7h75.1v-9h-75.1v-51.5h83.6v-9h-93.3v131.2h94.2ZM1547.1,605.9v-9h-77v-122.2h-9.7v131.2h86.8ZM1631.4,483.7v-9h-101.2v9h45.7v122.2h9.7v-122.2h45.7ZM1696.2,471.1l-104.5,184.4,7-4.9,97.5-161,19.9,34.7,3.7-11.8-23.7-41.5ZM1752.2,587l6.6,11.5h-96.1l-5,9h116.4l-13.7-24-8.2,3.5ZM1739.1,509.3l-8.1,26.1h10.6c18.5,0,26.7,7.4,26.7,19.1s-11.4,24.4-29.4,24.4-20.7-4-25-10l3.3-4c3.6,5.3,11.5,9.1,22.1,9.1s23.6-7.1,23.6-18.9-6.2-14.8-22.2-14.8h-16.4l11-35.9h39.2l-1,4.9h-34.4ZM1087.8,424.5h-3.4v228.4h3.4v-228.4Z"/>
</svg>