<?xml version="1.0" encoding="UTF-8"?>
<svg id="Layer_1" xmlns="http://www.w3.org/2000/svg" version="1.1" viewBox="0 0 1920 1080">
  <!-- Generator: Adobe Illustrator 29.7.1, SVG Export Plug-In . SVG Version: 2.1.1 Build 8)  -->
  <path d="M490.8,234.9h-26.5c-8.9,0-16.1,7.2-16.1,16.1v167.3c0,8.8-7.2,16.1-16.1,16.1h-66.1c-8.9,0-16.1-7.2-16.1-16.1v-167.3c0-8.8-7.2-16.1-16.1-16.1h-26.5c-8.9,0-13.3-5.7-13.3-12.6s4.4-12.6,13.3-12.6h183.4c8.8,0,13.2,5.7,13.2,12.6s-4.4,12.6-13.2,12.6ZM921,209.7c-6.3,0-11.3,4.4-11.3,13.2v37.4c0,8.8-6.8,13.6-15.1,10.5l-149.5-55.6c-8.3-3.1-21.9-6.6-26.4-5.6-6.1,1.4-11.4,7.2-11.4,16.1v195.3c0,8.8,5.1,13.2,11.4,13.2s11.3-4.4,11.3-13.2v-37.8c0-8.8,6.8-13.5,15.1-10.4l149.5,55.8c8.3,3.1,20.1,5.6,26.4,5.6s11.3-7.2,11.3-16.1v-195.3c0-8.8-5.1-13.2-11.3-13.2ZM1299.8,207.2c-63.4,0-114.8,51.4-114.8,114.8s51.4,114.8,114.8,114.8,114.8-51.4,114.8-114.8-51.4-114.8-114.8-114.8ZM1068.4,287c-5,0-9-4-9-9v-61.7c0-5-.1-9-.2-9h-.1c-63.4,0-114.8,51.4-114.8,114.8s51.4,114.8,114.8,114.8,114.8-51.4,114.8-114.8-3.4-26.3-3.4-26.3c-1.1-4.8-6.2-8.7-11.1-8.7h-91ZM593.3,405.2c7.1,0,15.5,5.1,18.8,11.4l3.3,6.3c3.3,6.3,11.8,11.4,18.9,11.4h56.1c7.1,0,10.2-5.1,6.8-11.4l-110.2-209.1c-3.3-6.3-8.7-6.3-12,0l-110.2,209.1c-3.3,6.3-.2,11.4,6.9,11.4h4.5c7.1,0,14-2,17.3-8.2l4.9-9.4c3.3-6.3,11.8-11.4,18.9-11.4h76ZM1611.1,305.3v123h14.7v-123h-14.7ZM1507.3,305.1l-81,123.2h15.7l19.4-29.9,3.9-5.9h97.5l3.9,5.9,19.4,29.9h15.5l-80.8-123.2h-13.4ZM1514,318l41,62.7h-81.9l41-62.7ZM573.1,794.3h-69v-207.4h69c65.2,0,110.2,44.7,110.2,103.1v.6c0,58.4-45,103.7-110.2,103.7M667.3,690.6c0-49.2-36.4-89.5-94.2-89.5h-53.6v179h53.6c57.8,0,94.2-39.4,94.2-88.9v-.6ZM884.8,794.3v-14.2h-133.6v-83.3h118.8v-14.2h-118.8v-81.5h132.1v-14.2h-147.5v207.4h149ZM1077.9,794.3v-14.2h-121.8v-193.2h-15.4v207.4h137.2ZM1211.1,601.1v-14.2h-160v14.2h72.3v193.2h15.4v-193.2h72.3ZM1313.7,581.2l-165.2,291.6,11.1-7.7,154.2-254.5,31.5,54.8,5.9-18.6-37.4-65.6ZM1402.2,764.4l10.5,18.2h-152l-7.9,14.2h184.1l-21.7-38-13,5.6ZM1381.5,641.5l-12.9,41.3h16.7c29.3,0,42.1,11.7,42.1,30.3s-18.1,38.6-46.5,38.6-32.8-6.4-39.5-15.9l5.2-6.4c5.7,8.4,18.2,14.4,34.9,14.4s37.3-11.2,37.3-29.9-9.9-23.4-35.1-23.4h-25.9l17.4-56.7h62l-1.5,7.7h-54.3Z"/>
</svg>