<?xml version="1.0" encoding="utf-8"?>
<!-- Generator: Adobe Illustrator 25.1.0, SVG Export Plug-In . SVG Version: 6.00 Build 0)  -->
<svg version="1.1" id="Layer_1" xmlns="http://www.w3.org/2000/svg" xmlns:xlink="http://www.w3.org/1999/xlink" x="0px" y="0px"
	 viewBox="0 0 321.9 106.5" style="enable-background:new 0 0 321.9 106.5;" xml:space="preserve">
<style type="text/css">
	.st0{fill:#FFFFFF;}
	.st1{fill:#E6E7E8;}
	.st2{fill:#292623;}
	.st3{fill:#D4D4D3;}
	.st4{opacity:0.25;fill:url(#SVGID_1_);enable-background:new    ;}
	.st5{fill:#C6C6C5;}
</style>
<g>
	<g>
		<rect class="st0" width="321.9" height="106.4"/>
		<polygon class="st1" points="168.1,106 186.4,66.7 0,66.7 0,106.5 167.8,106.5 		"/>
		<g>
			<g>
				<path class="st2" d="M48.9,83.1c-0.7-0.4-1.2-0.9-1.6-1.5c-0.4-0.6-0.6-1.4-0.6-2.2s0.2-1.5,0.6-2.2s0.9-1.1,1.6-1.5
					c0.7-0.4,1.4-0.5,2.2-0.5c0.6,0,1.2,0.1,1.8,0.3s1,0.5,1.4,1l-0.8,0.7c-0.6-0.7-1.4-1-2.3-1c-0.6,0-1.2,0.1-1.7,0.4
					s-0.9,0.7-1.2,1.1s-0.4,1-0.4,1.6s0.1,1.1,0.4,1.6c0.3,0.5,0.7,0.9,1.2,1.1c0.5,0.3,1,0.4,1.7,0.4c0.9,0,1.7-0.3,2.3-1l0.8,0.7
					c-0.4,0.4-0.8,0.7-1.4,1c-0.5,0.2-1.1,0.3-1.8,0.3C50.3,83.6,49.6,83.5,48.9,83.1z"/>
				<path class="st2" d="M63.1,82.5v1h-6v-8.3H63v1h-4.6v2.5h4.1v1h-4.1v2.7h4.7C63.1,82.4,63.1,82.5,63.1,82.5z"/>
				<path class="st2" d="M73.3,75.3v8.3h-1l-5-6.2v6.2h-1.2v-8.3h1l5,6.2v-6.2H73.3z"/>
				<path class="st2" d="M78.6,76.3h-2.8v-1h6.8v1h-2.8v7.2h-1.2V76.3z"/>
				<path class="st2" d="M90.6,83.6L88.8,81c-0.2,0-0.4,0-0.5,0h-2v2.5h-1.2v-8.3h3.2c1.1,0,1.9,0.3,2.5,0.8s0.9,1.2,0.9,2.1
					c0,0.6-0.2,1.2-0.5,1.6s-0.8,0.8-1.3,1l2,2.8L90.6,83.6L90.6,83.6z M90,79.6c0.4-0.3,0.6-0.8,0.6-1.4s-0.2-1.1-0.6-1.4
					s-1-0.5-1.7-0.5h-2V80h2C89,80,89.6,79.9,90,79.6z"/>
				<path class="st2" d="M96.3,83.1c-0.7-0.4-1.2-0.9-1.6-1.5s-0.6-1.4-0.6-2.2s0.2-1.5,0.6-2.2s0.9-1.1,1.6-1.5s1.4-0.5,2.3-0.5
					c0.8,0,1.6,0.2,2.2,0.5c0.7,0.4,1.2,0.9,1.6,1.5s0.6,1.4,0.6,2.2s-0.2,1.5-0.6,2.2c-0.4,0.6-0.9,1.1-1.6,1.5s-1.4,0.5-2.2,0.5
					C97.7,83.6,97,83.5,96.3,83.1z M100.2,82.2c0.5-0.3,0.9-0.7,1.1-1.1c0.3-0.5,0.4-1,0.4-1.6s-0.1-1.1-0.4-1.6s-0.7-0.9-1.1-1.1
					c-0.5-0.3-1-0.4-1.6-0.4s-1.2,0.1-1.6,0.4c-0.5,0.3-0.9,0.7-1.2,1.1s-0.4,1-0.4,1.6s0.1,1.1,0.4,1.6s0.7,0.9,1.2,1.1
					c0.5,0.3,1,0.4,1.6,0.4S99.7,82.5,100.2,82.2z"/>
				<path class="st2" d="M110.3,75.3h3.5c0.9,0,1.6,0.2,2.3,0.5c0.7,0.3,1.2,0.8,1.6,1.5c0.4,0.6,0.6,1.3,0.6,2.2s-0.2,1.5-0.6,2.2
					c-0.4,0.6-0.9,1.1-1.6,1.5c-0.7,0.3-1.5,0.5-2.3,0.5h-3.5V75.3z M113.7,82.5c0.7,0,1.3-0.1,1.8-0.4s0.9-0.6,1.2-1.1
					c0.3-0.5,0.4-1,0.4-1.6s-0.1-1.2-0.4-1.6c-0.3-0.5-0.7-0.8-1.2-1.1c-0.5-0.3-1.1-0.4-1.8-0.4h-2.2v6.2H113.7z"/>
				<path class="st2" d="M127.2,82.5v1h-6v-8.3h5.8v1h-4.6v2.5h4.1v1h-4.1v2.7h4.8C127.2,82.4,127.2,82.5,127.2,82.5z"/>
				<path class="st2" d="M21.8,89.1l-3.6,8.3H17l-3.6-8.3h1.3l3,6.8l3-6.8H21.8z"/>
				<path class="st2" d="M30,96.3v1h-6V89h5.8v1h-4.6v2.5h4.1v1h-4.1v2.7H30V96.3z"/>
				<path class="st2" d="M40.2,89.1v8.3h-1l-5-6.2v6.2H33v-8.3h1l5,6.2v-6.2H40.2z"/>
				<path class="st2" d="M45.5,90.1h-2.8v-1h6.8v1h-2.8v7.2h-1.2V90.1z"/>
				<path class="st2" d="M56.8,95.2h-4.4l-0.9,2.1h-1.2L54,89h1.2l3.7,8.3h-1.2L56.8,95.2z M56.4,94.3l-1.8-4l-1.8,4H56.4z"/>
				<path class="st2" d="M62,97.1c-0.6-0.2-1-0.4-1.4-0.7l0.4-0.9c0.3,0.3,0.7,0.5,1.2,0.7s1,0.3,1.5,0.3c0.7,0,1.2-0.1,1.5-0.3
					c0.3-0.2,0.5-0.5,0.5-0.9c0-0.3-0.1-0.5-0.3-0.7s-0.4-0.3-0.7-0.4c-0.3-0.1-0.7-0.2-1.1-0.3c-0.6-0.1-1.1-0.3-1.5-0.4
					s-0.7-0.4-1-0.7c-0.3-0.3-0.4-0.7-0.4-1.3c0-0.4,0.1-0.8,0.3-1.2c0.2-0.4,0.6-0.6,1.1-0.8S63.3,89,64,89c0.5,0,1,0.1,1.4,0.2
					c0.5,0.1,0.9,0.3,1.2,0.5l-0.4,0.9c-0.3-0.2-0.7-0.4-1.1-0.5S64.4,90,64,90c-0.7,0-1.2,0.1-1.5,0.4C62.2,90.6,62,91,62,91.3
					s0.1,0.5,0.3,0.7s0.4,0.3,0.7,0.4s0.7,0.2,1.1,0.3c0.6,0.1,1.1,0.3,1.5,0.4s0.7,0.4,1,0.7S67,94.5,67,95c0,0.4-0.1,0.8-0.4,1.2
					c-0.2,0.4-0.6,0.6-1.1,0.8c-0.5,0.2-1.1,0.3-1.8,0.3C63.2,97.4,62.6,97.3,62,97.1z"/>
				<path class="st2" d="M77.4,94.5v2.9h-1.2v-2.9l-3.3-5.4h1.3l2.6,4.4l2.7-4.4h1.2L77.4,94.5z"/>
				<path class="st2" d="M88,97.1c-0.6-0.2-1-0.4-1.4-0.7l0.4-0.9c0.3,0.3,0.7,0.5,1.2,0.7s1,0.3,1.5,0.3c0.7,0,1.2-0.1,1.5-0.3
					c0.3-0.2,0.5-0.5,0.5-0.9c0-0.3-0.1-0.5-0.3-0.7s-0.4-0.3-0.7-0.4c-0.3-0.1-0.7-0.2-1.1-0.3c-0.6-0.1-1.1-0.3-1.5-0.4
					s-0.7-0.4-1-0.7c-0.3-0.3-0.4-0.7-0.4-1.3c0-0.4,0.1-0.8,0.3-1.2c0.2-0.4,0.6-0.6,1.1-0.8S89.3,89,90,89c0.5,0,1,0.1,1.4,0.2
					c0.5,0.1,0.9,0.3,1.2,0.5l-0.4,0.9c-0.3-0.2-0.7-0.4-1.1-0.5S90.4,90,90,90c-0.7,0-1.2,0.1-1.5,0.4C88.2,90.6,88,91,88,91.3
					s0.1,0.5,0.3,0.7c0.2,0.2,0.4,0.3,0.7,0.4c0.3,0.1,0.7,0.2,1.1,0.3c0.6,0.1,1.1,0.3,1.5,0.4s0.7,0.4,1,0.7S93,94.5,93,95
					c0,0.4-0.1,0.8-0.4,1.2c-0.2,0.4-0.6,0.6-1.1,0.8c-0.5,0.2-1.1,0.3-1.8,0.3C89.2,97.4,88.6,97.3,88,97.1z"/>
				<path class="st2" d="M101.9,96.3v1h-6V89h5.8v1h-4.6v2.5h4.1v1h-4.1v2.7h4.8C101.9,96.2,101.9,96.3,101.9,96.3z"/>
				<path class="st2" d="M110.5,97.3l-1.8-2.5c-0.2,0-0.4,0-0.5,0h-2v2.5H105V89h3.2c1.1,0,1.9,0.3,2.5,0.8s0.9,1.2,0.9,2.1
					c0,0.6-0.2,1.2-0.5,1.6s-0.8,0.8-1.3,1l2,2.8H110.5z M109.9,93.3c0.4-0.3,0.6-0.8,0.6-1.4s-0.2-1.1-0.6-1.4s-1-0.5-1.7-0.5h-2
					v3.7h2C108.9,93.8,109.5,93.6,109.9,93.3z"/>
				<path class="st2" d="M121.9,89.1l-3.6,8.3h-1.2l-3.6-8.3h1.3l3,6.8l3-6.8H121.9z"/>
				<path class="st2" d="M124.1,89.1h1.2v8.3h-1.2V89.1z"/>
				<path class="st2" d="M130.4,96.9c-0.7-0.4-1.2-0.9-1.6-1.5c-0.4-0.6-0.6-1.4-0.6-2.2s0.2-1.5,0.6-2.2s0.9-1.1,1.6-1.5
					c0.7-0.4,1.4-0.5,2.2-0.5c0.6,0,1.2,0.1,1.8,0.3s1,0.5,1.4,1L135,91c-0.6-0.7-1.4-1-2.3-1c-0.6,0-1.2,0.1-1.7,0.4
					s-0.9,0.7-1.2,1.1s-0.4,1-0.4,1.6s0.1,1.1,0.4,1.6c0.3,0.5,0.7,0.9,1.2,1.1c0.5,0.3,1,0.4,1.7,0.4c0.9,0,1.7-0.3,2.3-1l0.8,0.7
					c-0.4,0.4-0.8,0.7-1.4,1c-0.5,0.2-1.1,0.3-1.8,0.3C131.8,97.4,131.1,97.2,130.4,96.9z"/>
				<path class="st2" d="M138.6,89.1h1.2v8.3h-1.2V89.1z"/>
				<path class="st2" d="M145,96.9c-0.7-0.4-1.2-0.9-1.6-1.5s-0.6-1.4-0.6-2.2s0.2-1.5,0.6-2.2s0.9-1.1,1.6-1.5
					c0.7-0.4,1.4-0.5,2.3-0.5c0.8,0,1.6,0.2,2.2,0.5c0.7,0.4,1.2,0.9,1.6,1.5c0.4,0.6,0.6,1.4,0.6,2.2s-0.2,1.5-0.6,2.2
					c-0.4,0.6-0.9,1.1-1.6,1.5c-0.7,0.4-1.4,0.5-2.2,0.5C146.4,97.4,145.6,97.2,145,96.9z M148.8,95.9c0.5-0.3,0.9-0.7,1.1-1.1
					c0.3-0.5,0.4-1,0.4-1.6s-0.1-1.1-0.4-1.6c-0.3-0.5-0.7-0.9-1.1-1.1c-0.5-0.3-1-0.4-1.6-0.4s-1.2,0.1-1.6,0.4
					c-0.5,0.3-0.9,0.7-1.2,1.1s-0.4,1-0.4,1.6s0.1,1.1,0.4,1.6c0.3,0.5,0.7,0.9,1.2,1.1c0.5,0.3,1,0.4,1.6,0.4
					C147.8,96.4,148.4,96.2,148.8,95.9z"/>
				<path class="st2" d="M155.2,97.1c-0.6-0.2-1-0.4-1.4-0.7l0.4-0.9c0.3,0.3,0.7,0.5,1.2,0.7s1,0.3,1.5,0.3c0.7,0,1.2-0.1,1.5-0.3
					c0.3-0.2,0.5-0.5,0.5-0.9c0-0.3-0.1-0.5-0.3-0.7s-0.4-0.3-0.7-0.4s-0.7-0.2-1.1-0.3c-0.6-0.1-1.1-0.3-1.5-0.4s-0.7-0.4-1-0.7
					c-0.3-0.3-0.4-0.7-0.4-1.3c0-0.4,0.1-0.8,0.3-1.2c0.2-0.4,0.6-0.6,1.1-0.8s1.1-0.3,1.8-0.3c0.5,0,1,0.1,1.4,0.2
					c0.5,0.1,0.9,0.3,1.2,0.5l-0.4,0.9c-0.3-0.2-0.7-0.4-1.1-0.5c-0.4-0.1-0.8-0.2-1.2-0.2c-0.7,0-1.2,0.1-1.5,0.4
					c-0.3,0.2-0.5,0.6-0.5,0.9s0.1,0.5,0.3,0.7s0.4,0.3,0.7,0.4s0.7,0.2,1.1,0.3c0.6,0.1,1.1,0.3,1.5,0.4s0.7,0.4,1,0.7
					s0.4,0.7,0.4,1.2c0,0.4-0.1,0.8-0.4,1.2c-0.2,0.4-0.6,0.6-1.1,0.8c-0.5,0.2-1.1,0.3-1.8,0.3C156.3,97.4,155.7,97.3,155.2,97.1z"
					/>
			</g>
		</g>
		<g id="Tango_Software_3_">
			<g>
				<g>
					<path d="M41.7,20.8c0-0.8-0.5-1.5-1.6-1.5H17.7c-1.1,0-1.6,0.7-1.6,1.5s0.5,1.5,1.6,1.5h3.2c1.1,0,2,0.9,2,2v20.4
						c0,1.1,0.9,2,2,2H33c1.1,0,2-0.9,2-2V24.3c0-1.1,0.9-2,2-2h3.2C41.1,22.3,41.7,21.6,41.7,20.8z"/>
				</g>
				<g>
					<path d="M92.6,19.3c-0.8,0-1.4,0.5-1.4,1.6v4.6c0,1.1-0.8,1.7-1.8,1.3L71.1,20c-1-0.4-2.7-0.8-3.2-0.7c-0.7,0.2-1.4,0.9-1.4,2
						v23.9c0,1.1,0.6,1.6,1.4,1.6s1.4-0.5,1.4-1.6v-4.6c0-1.1,0.8-1.7,1.8-1.3L89.4,46c1,0.4,2.5,0.7,3.2,0.7c0.8,0,1.4-0.9,1.4-2
						V20.9C94,19.8,93.4,19.3,92.6,19.3z"/>
				</g>
				<g>
					<path d="M152.9,33c0,7.7-6.3,14-14,14s-14-6.3-14-14s6.3-14,14-14C146.6,19,152.9,25.2,152.9,33z"/>
				</g>
				<g>
					<path d="M110.6,28.7c-0.6,0-1.1-0.5-1.1-1.1v-7.5c0-0.6,0-1.1,0-1.1l0,0c-7.7,0-14,6.3-14,14s6.3,14,14,14s14-6.3,14-14
						c0-1.5-0.4-3.2-0.4-3.2c-0.1-0.6-0.8-1.1-1.4-1.1C121.7,28.7,110.6,28.7,110.6,28.7z"/>
				</g>
				<g>
					<path d="M52.6,43.1c0.9,0,1.9,0.6,2.3,1.4l0.4,0.8c0.4,0.8,1.4,1.4,2.3,1.4h6.9c0.9,0,1.2-0.6,0.8-1.4L51.8,19.8
						c-0.4-0.8-1.1-0.8-1.5,0L36.9,45.3c-0.4,0.8,0,1.4,0.8,1.4h0.6c0.9,0,1.7-0.2,2.1-1l0.6-1.2c0.4-0.8,1.4-1.4,2.3-1.4H52.6z"/>
				</g>
			</g>
			<g>
				<path d="M182.8,42c-1.4,1.5-3.8,2.3-6.6,2.3c-5.1,0-8.7-2.2-9.3-6.3h1.4c0.7,3.2,3.6,5,7.8,5c2.4,0,4.4-0.8,5.6-2
					c0.7-0.7,1.1-1.7,1-2.8c-0.1-2.5-2.1-3.7-7-4.4c-3.5-0.5-7.8-1.1-7.8-5.1c0-2.7,2.6-5.5,7.6-5.5c4.4,0,7.4,2,8.2,5.6h-1.5
					c-0.8-2.7-3.1-4.3-6.7-4.3c-3.6,0-6.2,1.8-6.2,4.1s2.1,3,6.6,3.7c4.2,0.6,8,1.7,8.2,5.8C184.3,39.6,183.8,41,182.8,42z"/>
				<path d="M206.1,33.9c0,5.8-4.5,10.5-10.1,10.5c-5.5,0-10-4.7-10-10.5c0-5.9,4.5-10.6,10-10.6C201.6,23.3,206.1,28,206.1,33.9z
					 M204.7,33.9c0-5.1-3.8-9.2-8.6-9.2c-4.7,0-8.6,4.1-8.6,9.2c0,5,3.9,9.1,8.6,9.1S204.7,38.9,204.7,33.9z"/>
				<path d="M211,25.2v18.7h-1.5V25.2h-2.7v-1.4h2.7v-1.4c0-4.4,2.5-7.3,6.9-6.9v1.3c-3.8-0.2-5.4,2.1-5.4,5.7v1.3h5.4v1.4
					C216.4,25.2,211,25.2,211,25.2z"/>
				<path d="M221.6,36.9c0,3.4,1.6,5.8,5.4,5.6v1.3c-4.3,0.4-6.9-2.5-6.9-6.9V25.2h-2.7v-1.4h2.7v-4.3h1.4v4.3h5.4v1.4h-5.4v11.7
					C221.5,36.9,221.6,36.9,221.6,36.9z"/>
				<path d="M248.1,43.9h-1.6l-5.4-17.7l-5.4,17.7h-1.6L228,23.8h1.5l5.4,17.7l5.4-17.7h1.6l5.4,17.7l5.4-17.7h1.5L248.1,43.9z"/>
				<path d="M271.4,43.9c-0.4-0.7-0.5-1.7-0.5-2.9v-0.4c-1.6,2.3-4.7,3.7-8.7,3.7c-3.5,0-7.3-1.8-7.3-5.6c0-4.6,4.3-5.6,8.5-6
					c4.4-0.4,7.4-0.9,7.4-3.4c0-3.7-3.5-4.6-6.5-4.6c-3.7,0-6.1,1.5-6.9,4.3h-1.5c0.9-3.6,3.9-5.7,8.4-5.7c5,0,7.9,2.2,7.9,6v11.4
					c0,1,0.3,2.5,0.6,3.3L271.4,43.9L271.4,43.9z M270.9,32c-1.6,1.4-4.5,1.7-7.3,2c-5.2,0.5-7.1,1.9-7.1,4.6c0,3.3,3.7,4.2,5.7,4.2
					c4.3,0,8.7-2,8.7-6.2L270.9,32L270.9,32z"/>
				<path d="M286.7,24.7c-2.7-0.2-4.7,0.5-5.9,1.7c-1.4,1.3-2.2,3.2-2.2,5.3v12.1h-1.5v-20h1.5v3.4c0.4-0.7,0.8-1.3,1.3-1.8
					c1.8-1.6,4.1-2.3,6.8-2L286.7,24.7L286.7,24.7z"/>
				<path d="M287.6,33.8c0,5.2,3.9,9.1,8.8,9.1c4.7,0,6.9-2.6,7.8-5.3h1.5c-1.4,4.3-4.6,6.7-9.4,6.7c-5.7,0-10.3-4.6-10.3-10.5
					s4.5-10.6,10-10.6c6,0,10.1,5.5,10,10.5L287.6,33.8L287.6,33.8z M304.7,32.4c-0.7-4.3-4.3-7.6-8.5-7.6c-4.3,0-7.8,3.3-8.4,7.6
					H304.7z"/>
			</g>
		</g>
	</g>
	<g id="CERTIFICADO">
		<polygon class="st3" points="321.9,106.5 321.9,66.7 189.6,66.7 171.1,106.5 		"/>
		
			<linearGradient id="SVGID_1_" gradientUnits="userSpaceOnUse" x1="185.7657" y1="-911.8715" x2="322.7014" y2="-1001.446" gradientTransform="matrix(1 0 0 -1 0 -865)">
			<stop  offset="0" style="stop-color:#E4E1DE"/>
			<stop  offset="0" style="stop-color:#DDD9D5"/>
			<stop  offset="3.268256e-02" style="stop-color:#CECBC8"/>
			<stop  offset="9.543890e-02" style="stop-color:#A7A7A5"/>
			<stop  offset="0.181" style="stop-color:#696D6D"/>
			<stop  offset="0.264" style="stop-color:#262F31"/>
			<stop  offset="0.3044" style="stop-color:#444C4E"/>
			<stop  offset="0.3988" style="stop-color:#868A8B"/>
			<stop  offset="0.4783" style="stop-color:#B6B8B9"/>
			<stop  offset="0.5388" style="stop-color:#D4D4D5"/>
			<stop  offset="0.573" style="stop-color:#DFDFDF"/>
			<stop  offset="0.6071" style="stop-color:#D5D6D6"/>
			<stop  offset="0.6646" style="stop-color:#BBBCBD"/>
			<stop  offset="0.7383" style="stop-color:#909294"/>
			<stop  offset="0.8246" style="stop-color:#565A5D"/>
			<stop  offset="0.8764" style="stop-color:#2F3438"/>
			<stop  offset="1" style="stop-color:#D1D2D3"/>
			<stop  offset="1" style="stop-color:#A7A8AB"/>
		</linearGradient>
		<polygon class="st4" points="189.6,66.7 321.9,66.7 321.9,106.5 171.1,106.5 		"/>
		<g>
			<g>
				<path class="st2" d="M205.2,90.8c0.8,0,1.4-0.1,2-0.4c0.5-0.3,1.1-0.7,1.7-1.2l1.4,1.5c-1.4,1.5-3.1,2.3-5,2.3
					c-2,0-3.6-0.6-4.9-1.9c-1.3-1.3-2-2.9-2-4.8s0.7-3.6,2-4.9s3-1.9,5-1.9s3.7,0.7,5.1,2.2l-1.4,1.5c-0.6-0.6-1.2-1-1.8-1.3
					c-0.6-0.2-1.2-0.4-2-0.4c-1.3,0-2.4,0.4-3.3,1.3s-1.3,1.9-1.3,3.3c0,1.3,0.4,2.4,1.3,3.3C202.9,90.3,203.9,90.8,205.2,90.8z"/>
				<path class="st2" d="M221.9,88.7h-7.8c0,0.7,0.4,1.3,1,1.7c0.6,0.4,1.3,0.7,2.1,0.7c1.2,0,2.2-0.4,2.8-1.2l1.2,1.3
					c-1.1,1.1-2.5,1.7-4.2,1.7c-1.4,0-2.6-0.5-3.6-1.4s-1.5-2.2-1.5-3.7c0-1.6,0.5-2.8,1.5-3.7c1-0.9,2.2-1.4,3.5-1.4
					s2.5,0.4,3.4,1.2c0.9,0.8,1.4,1.9,1.4,3.4v1.4H221.9z M214.1,87.1h5.7c0-0.8-0.3-1.5-0.8-1.9s-1.2-0.7-1.9-0.7
					c-0.8,0-1.5,0.2-2.1,0.7S214.1,86.3,214.1,87.1z"/>
				<path class="st2" d="M229.4,84.8c-1,0-1.8,0.3-2.3,1s-0.8,1.6-0.8,2.7v4.3h-2.1v-9.9h2.1v2c0.3-0.6,0.8-1.1,1.4-1.5
					c0.6-0.4,1.2-0.6,1.8-0.6L229.4,84.8C229.5,84.8,229.4,84.8,229.4,84.8z"/>
				<path class="st2" d="M234.2,84.5v5c0,0.5,0.1,0.8,0.4,1.1c0.2,0.3,0.6,0.4,1,0.4s0.9-0.2,1.3-0.7l0.9,1.5c-0.7,0.7-1.5,1-2.4,1
					s-1.6-0.3-2.3-0.9s-0.9-1.4-0.9-2.5v-5h-1.3v-1.7h1.3v-3.1h2.1v3.1h2.6v1.7L234.2,84.5L234.2,84.5z"/>
				<path class="st2" d="M239.5,80.9c-0.3-0.3-0.4-0.6-0.4-0.9c0-0.4,0.1-0.7,0.4-0.9c0.3-0.3,0.6-0.4,0.9-0.4s0.7,0.1,0.9,0.4
					c0.3,0.3,0.4,0.6,0.4,0.9c0,0.4-0.1,0.7-0.4,0.9s-0.6,0.4-0.9,0.4S239.8,81.1,239.5,80.9z M241.5,92.8h-2.1v-9.9h2.1V92.8z"/>
				<path class="st2" d="M247.1,82v0.8h2.6v1.7h-2.6v8.3H245v-8.3h-1.3v-1.7h1.3V82c0-1,0.3-1.9,0.9-2.5s1.4-0.9,2.3-0.9
					c0.9,0,1.7,0.3,2.4,1l-0.9,1.5c-0.4-0.4-0.8-0.7-1.3-0.7c-0.4,0-0.8,0.1-1,0.4C247.2,81.2,247.1,81.6,247.1,82z"/>
				<path class="st2" d="M251.9,80.9c-0.3-0.3-0.4-0.6-0.4-0.9c0-0.4,0.1-0.7,0.4-0.9c0.3-0.3,0.6-0.4,0.9-0.4s0.7,0.1,0.9,0.4
					c0.3,0.3,0.4,0.6,0.4,0.9c0,0.4-0.1,0.7-0.4,0.9s-0.6,0.4-0.9,0.4S252.1,81.1,251.9,80.9z M253.8,92.8h-2.1v-9.9h2.1V92.8z"/>
				<path class="st2" d="M261.2,92.9c-1.4,0-2.6-0.5-3.6-1.4s-1.5-2.2-1.5-3.7s0.5-2.8,1.6-3.7s2.3-1.4,3.8-1.4s2.8,0.5,3.8,1.5
					l-1.2,1.5c-0.9-0.7-1.7-1.1-2.6-1.1s-1.6,0.3-2.3,0.9c-0.6,0.6-1,1.3-1,2.2c0,0.9,0.3,1.7,1,2.3s1.4,1,2.3,1s1.8-0.4,2.6-1.3
					l1.2,1.3C264.2,92.3,262.8,92.9,261.2,92.9z"/>
				<path class="st2" d="M275.6,92.8h-1.9v-1.3c-0.8,1-1.9,1.5-3.3,1.5c-1,0-1.9-0.3-2.6-0.9s-1-1.4-1-2.3c0-1,0.4-1.7,1.1-2.2
					s1.7-0.7,2.9-0.7h2.7v-0.4c0-1.3-0.7-2-2.2-2c-0.9,0-1.9,0.3-2.9,1l-0.9-1.3c1.2-1,2.6-1.4,4.1-1.4c1.2,0,2.1,0.3,2.9,0.9
					c0.7,0.6,1.1,1.5,1.1,2.8L275.6,92.8L275.6,92.8z M273.5,89.1v-0.8h-2.4c-1.5,0-2.3,0.5-2.3,1.4c0,0.5,0.2,0.9,0.6,1.1
					s0.9,0.4,1.6,0.4s1.2-0.2,1.7-0.6C273.2,90.2,273.5,89.7,273.5,89.1z"/>
				<path class="st2" d="M279.2,91.5c-0.9-0.9-1.4-2.2-1.4-3.7s0.5-2.8,1.4-3.7c1-0.9,2.1-1.4,3.4-1.4s2.4,0.6,3.2,1.7v-5.5h2.1
					v13.9h-2.1v-1.5c-0.8,1.1-1.9,1.6-3.4,1.6C281.3,92.9,280.2,92.5,279.2,91.5z M279.9,87.9c0,1,0.3,1.7,0.9,2.3
					c0.6,0.6,1.3,0.9,2.1,0.9s1.5-0.3,2.1-0.9s0.9-1.4,0.9-2.3s-0.3-1.7-0.9-2.4c-0.6-0.6-1.3-1-2.1-1c-0.8,0-1.5,0.3-2.1,1
					C280.2,86.1,279.9,86.9,279.9,87.9z"/>
				<path class="st2" d="M299.3,91.5c-1,1-2.2,1.5-3.7,1.5s-2.7-0.5-3.7-1.5s-1.5-2.2-1.5-3.6s0.5-2.6,1.5-3.6s2.2-1.5,3.7-1.5
					s2.7,0.5,3.7,1.5s1.5,2.2,1.5,3.6S300.3,90.5,299.3,91.5z M293.3,90.2c0.6,0.6,1.3,0.9,2.2,0.9c0.9,0,1.7-0.3,2.2-0.9
					c0.6-0.6,0.9-1.4,0.9-2.3c0-1-0.3-1.7-0.9-2.3c-0.6-0.6-1.3-0.9-2.2-0.9c-0.9,0-1.7,0.3-2.2,0.9c-0.6,0.6-0.9,1.4-0.9,2.3
					C292.5,88.8,292.8,89.6,293.3,90.2z"/>
			</g>
		</g>
	</g>
	<path class="st5" d="M321.4,0.5V106H0.5V0.5H321.4z M0,0v106.5h321.9V0H0z"/>
</g>
</svg>
