<svg id="Layer_1" data-name="Layer 1" xmlns="http://www.w3.org/2000/svg" viewBox="0 0 97.72 71.34"><defs><style>.cls-1{fill:#2fa7df;}.cls-2{fill:#fff;}</style></defs><polygon class="cls-1" points="97.82 0 0 0 -0.11 71.34 97.72 71.34 97.82 0"/><path class="cls-2" d="M31.64,17a.6.6,0,0,0-.65-.62H22a.62.62,0,1,0,0,1.24h1.3a.79.79,0,0,1,.79.79v8.22a.8.8,0,0,0,.79.79h3.26a.8.8,0,0,0,.79-.79V18.42a.79.79,0,0,1,.79-.79H31A.6.6,0,0,0,31.64,17Z"/><path class="cls-2" d="M52.13,16.39c-.31,0-.56.21-.56.65v1.84a.51.51,0,0,1-.74.51l-7.35-2.73a3.62,3.62,0,0,0-1.29-.27.75.75,0,0,0-.56.79v9.6c0,.43.25.65.56.65s.55-.22.55-.65V24.92a.51.51,0,0,1,.74-.51l7.35,2.74a4.36,4.36,0,0,0,1.3.28c.31,0,.56-.36.56-.79V17C52.69,16.6,52.44,16.39,52.13,16.39Z"/><path class="cls-2" d="M76.39,21.91a5.64,5.64,0,1,1-5.64-5.64A5.63,5.63,0,0,1,76.39,21.91Z"/><path class="cls-2" d="M59.38,20.19a.45.45,0,0,1-.44-.45v-3c0-.24,0-.44,0-.44h0a5.64,5.64,0,1,0,5.64,5.64,6.74,6.74,0,0,0-.16-1.29.6.6,0,0,0-.55-.43Z"/><path class="cls-2" d="M36,26a1.15,1.15,0,0,1,.93.56l.16.31a1.16,1.16,0,0,0,.93.56H40.8a.35.35,0,0,0,.33-.56L35.72,16.59c-.16-.3-.43-.3-.59,0L29.71,26.87a.35.35,0,0,0,.34.56h.22a.89.89,0,0,0,.85-.41l.24-.46a1.16,1.16,0,0,1,.93-.56Z"/><path class="cls-2" d="M27.52,47.56c0,3.3-2.12,5.52-5.27,5.52a4.84,4.84,0,0,1-5-3.51h.81a4.11,4.11,0,0,0,4.17,2.74c2.74,0,4.5-1.86,4.5-4.75v-2.2a5,5,0,0,1-4.54,2.76,5.62,5.62,0,0,1,0-11.23,5,5,0,0,1,4.54,2.79V37.16h.77Zm-5.31-9.88a4.83,4.83,0,0,0,0,9.65,4.51,4.51,0,0,0,4.54-4.79A4.55,4.55,0,0,0,22.21,37.68Z"/><path class="cls-2" d="M29.83,42.5a4.7,4.7,0,0,0,4.69,4.83,4.07,4.07,0,0,0,4.17-2.8h.81a4.86,4.86,0,0,1-5,3.57,5.61,5.61,0,0,1-.13-11.21,5.52,5.52,0,0,1,5.33,5.61Zm9.06-.77a4.68,4.68,0,0,0-4.5-4,4.63,4.63,0,0,0-4.48,4Z"/><path class="cls-2" d="M48.71,46.86a4.92,4.92,0,0,1-3.53,1.24c-2.69,0-4.6-1.18-5-3.36H41c.38,1.72,1.91,2.63,4.17,2.63a4.17,4.17,0,0,0,3-1,1.91,1.91,0,0,0,.52-1.48c0-1.3-1.1-2-3.71-2.34-1.85-.27-4.13-.58-4.17-2.7,0-1.45,1.36-2.91,4-2.91,2.37,0,3.92,1.06,4.38,3h-.79c-.43-1.43-1.66-2.26-3.57-2.26s-3.3.94-3.28,2.18,1.15,1.62,3.51,2,4.28.91,4.38,3.07A2.83,2.83,0,0,1,48.71,46.86Z"/><path class="cls-2" d="M52.16,44.16c0,1.82.85,3.07,2.88,3v.7c-2.3.21-3.65-1.31-3.65-3.69V37.93H49.94v-.77h1.45V34.88h.77v2.28H55v.77H52.16Z"/><path class="cls-2" d="M57.49,35.36h-.76V33.45h.76Zm0,12.49h-.76V37.16h.76Z"/><path class="cls-2" d="M69.92,42.54a5.35,5.35,0,1,1-5.35-5.65A5.46,5.46,0,0,1,69.92,42.54Zm-.78,0a4.58,4.58,0,1,0-4.57,4.83A4.75,4.75,0,0,0,69.14,42.54Zm-4-7h-.85L66,33.43h1Z"/><path class="cls-2" d="M80.55,47.85h-.77V41.4c0-2.35-1.26-3.76-3.61-3.76a3.72,3.72,0,0,0-3.84,3.76v6.45h-.76V37.16h.76V39a4.4,4.4,0,0,1,3.86-2.08c2.74,0,4.36,1.73,4.36,4.51Z"/></svg>