<svg id="Layer_1" data-name="Layer 1" xmlns="http://www.w3.org/2000/svg" viewBox="0 0 97.72 71.34"><defs><style>.cls-1{fill:#607d8a;}.cls-2{fill:#fff;}</style></defs><polygon class="cls-1" points="97.82 0 0 0 -0.11 71.34 97.72 71.34 97.82 0"/><path class="cls-2" d="M31.64,17a.6.6,0,0,0-.65-.62H22a.62.62,0,1,0,0,1.24h1.3a.79.79,0,0,1,.79.79v8.22a.8.8,0,0,0,.8.79h3.25a.8.8,0,0,0,.79-.79V18.42a.79.79,0,0,1,.79-.79H31A.6.6,0,0,0,31.64,17Z"/><path class="cls-2" d="M52.13,16.39c-.31,0-.56.21-.56.65v1.84a.51.51,0,0,1-.74.51l-7.34-2.73a3.71,3.71,0,0,0-1.3-.27.75.75,0,0,0-.56.79v9.6c0,.43.25.65.56.65a.57.57,0,0,0,.56-.65V24.92a.51.51,0,0,1,.74-.51l7.34,2.74a4.36,4.36,0,0,0,1.3.28c.31,0,.56-.36.56-.79V17C52.69,16.6,52.44,16.39,52.13,16.39Z"/><path class="cls-2" d="M76.4,21.91a5.65,5.65,0,1,1-5.65-5.64A5.64,5.64,0,0,1,76.4,21.91Z"/><path class="cls-2" d="M59.38,20.19a.45.45,0,0,1-.44-.45v-3c0-.24,0-.44,0-.44h0a5.64,5.64,0,1,0,5.64,5.64,6.74,6.74,0,0,0-.16-1.29.59.59,0,0,0-.55-.43Z"/><path class="cls-2" d="M36,26a1.15,1.15,0,0,1,.92.56l.16.31a1.16,1.16,0,0,0,.93.56H40.8c.35,0,.5-.25.33-.56L35.72,16.59c-.16-.3-.43-.3-.59,0L29.71,26.87a.35.35,0,0,0,.34.56h.22a.91.91,0,0,0,.86-.41l.23-.46a1.16,1.16,0,0,1,.93-.56Z"/><path class="cls-2" d="M36.13,47.85h-.76V41.4c0-2.35-1.27-3.76-3.61-3.76a3.72,3.72,0,0,0-3.84,3.76v6.45h-.77V37.16h.77V39a4.39,4.39,0,0,1,3.86-2.07c2.74,0,4.35,1.72,4.35,4.5Z"/><path class="cls-2" d="M47.32,47.85h-.77V46.09a4.15,4.15,0,0,1-3.73,2,4.34,4.34,0,0,1-4.48-4.48V37.16h.76v6.46a3.73,3.73,0,0,0,7.45,0V37.16h.77Z"/><path class="cls-2" d="M55.23,48.1a5.17,5.17,0,0,1-4.56-2.82v2.57H49.9V32.41h.77v7.35a5.17,5.17,0,0,1,4.56-2.86,5.61,5.61,0,0,1,0,11.2Zm0-10.42a4.83,4.83,0,1,0,4.57,4.86A4.73,4.73,0,0,0,55.23,37.68Z"/><path class="cls-2" d="M62.06,42.5a4.7,4.7,0,0,0,4.69,4.83,4.07,4.07,0,0,0,4.17-2.8h.81a4.86,4.86,0,0,1-5,3.57,5.6,5.6,0,0,1-.12-11.2A5.53,5.53,0,0,1,72,42.5Zm9.07-.77a4.52,4.52,0,0,0-9,0Z"/></svg>