<svg id="Layer_1" data-name="Layer 1" xmlns="http://www.w3.org/2000/svg" viewBox="0 0 210.92 33.9"><defs><style>.cls-1{fill:#fff;}.cls-2{fill:#f47d30;}</style></defs><rect class="cls-1" width="210.92" height="33.9"/><path class="cls-2" d="M21.63,12a.59.59,0,0,0-.65-.62H12a.62.62,0,1,0,0,1.24h1.31a.8.8,0,0,1,.79.79v8.24a.79.79,0,0,0,.79.79H18.1a.8.8,0,0,0,.79-.79V13.45a.79.79,0,0,1,.79-.79H21A.59.59,0,0,0,21.63,12Z"/><path class="cls-2" d="M42.16,11.42c-.31,0-.56.22-.56.65v1.85a.51.51,0,0,1-.74.51L33.5,11.7a3.76,3.76,0,0,0-1.3-.28.77.77,0,0,0-.56.79v9.62c0,.43.25.65.56.65s.56-.22.56-.65V20a.51.51,0,0,1,.74-.51l7.36,2.74a4.36,4.36,0,0,0,1.3.28c.3,0,.55-.36.55-.79V12.07C42.71,11.64,42.46,11.42,42.16,11.42Z"/><path class="cls-2" d="M66.46,17a5.65,5.65,0,1,1-5.65-5.65A5.65,5.65,0,0,1,66.46,17Z"/><path class="cls-2" d="M49.42,15.23a.45.45,0,0,1-.45-.45v-3a3.49,3.49,0,0,0,0-.44h0A5.65,5.65,0,1,0,54.61,17a6.37,6.37,0,0,0-.17-1.29.58.58,0,0,0-.54-.43Z"/><path class="cls-2" d="M26,21.05a1.13,1.13,0,0,1,.92.56l.17.31a1.15,1.15,0,0,0,.93.56h2.76a.35.35,0,0,0,.33-.56L25.72,11.63c-.16-.31-.43-.31-.59,0L19.7,21.92a.35.35,0,0,0,.34.56h.23a.9.9,0,0,0,.85-.41l.24-.46a1.15,1.15,0,0,1,.93-.56Z"/><path class="cls-2" d="M72.59,17.28A3.56,3.56,0,0,0,76.14,21a3.08,3.08,0,0,0,3.16-2.13h.62a3.69,3.69,0,0,1-3.78,2.71A4.15,4.15,0,0,1,72,17.31a4.05,4.05,0,1,1,8.09,0Zm6.87-.58a3.42,3.42,0,0,0-6.81,0Z"/><path class="cls-2" d="M86.9,20.59a3.73,3.73,0,0,1-2.67.94c-2,0-3.5-.9-3.76-2.55h.58c.28,1.31,1.45,2,3.16,2a3.21,3.21,0,0,0,2.27-.8,1.47,1.47,0,0,0,.39-1.12c0-1-.83-1.49-2.82-1.78-1.4-.2-3.13-.44-3.16-2,0-1.1,1-2.21,3.07-2.21,1.79,0,3,.81,3.32,2.27h-.6A2.52,2.52,0,0,0,84,13.59c-1.46,0-2.5.7-2.48,1.65s.86,1.22,2.66,1.48,3.24.69,3.32,2.32A2.19,2.19,0,0,1,86.9,20.59Z"/><path class="cls-2" d="M89.51,18.54c0,1.39.65,2.33,2.19,2.27v.53c-1.75.16-2.77-1-2.77-2.8V13.82h-1.1v-.58h1.1V11.51h.58v1.73H91.7v.58H89.51Z"/><path class="cls-2" d="M99.48,21.34H98.9V20a3.14,3.14,0,0,1-2.83,1.53,3.29,3.29,0,0,1-3.4-3.4V13.24h.58v4.89a2.83,2.83,0,0,0,5.65,0V13.24h.58Z"/><path class="cls-2" d="M108.81,21.34h-.58V19.39a3.9,3.9,0,0,1-3.46,2.14,4.13,4.13,0,0,1-4-4.22,4.16,4.16,0,0,1,4-4.28,3.9,3.9,0,0,1,3.46,2.18V9.64h.58Zm-4-7.71a3.67,3.67,0,1,0,3.46,3.68A3.58,3.58,0,0,0,104.77,13.63Z"/><path class="cls-2" d="M111.42,11.87h-.58V10.42h.58Zm0,9.47h-.58v-8.1h.58Z"/><path class="cls-2" d="M120.84,17.31a4.05,4.05,0,1,1-8.1,0,4.06,4.06,0,1,1,8.1,0Zm-.59,0a3.47,3.47,0,1,0-6.93,0,3.47,3.47,0,1,0,6.93,0Z"/><path class="cls-2" d="M127.73,20.59a3.73,3.73,0,0,1-2.67.94c-2,0-3.49-.9-3.76-2.55h.58c.28,1.31,1.45,2,3.16,2a3.19,3.19,0,0,0,2.27-.8,1.47,1.47,0,0,0,.39-1.12c0-1-.83-1.49-2.81-1.78-1.4-.2-3.13-.44-3.17-2,0-1.1,1-2.21,3.07-2.21,1.8,0,3,.81,3.32,2.27h-.6a2.51,2.51,0,0,0-2.7-1.71c-1.46,0-2.5.7-2.49,1.65s.87,1.22,2.66,1.48,3.24.69,3.32,2.32A2.11,2.11,0,0,1,127.73,20.59Z"/><path class="cls-2" d="M137.31,21.53a4.13,4.13,0,0,1-4-4.22,4.17,4.17,0,0,1,4-4.28,3.85,3.85,0,0,1,3.75,2.71h-.63a3.27,3.27,0,0,0-3.12-2.11,3.67,3.67,0,0,0,0,7.32,3.19,3.19,0,0,0,3.13-2.13h.62A3.84,3.84,0,0,1,137.31,21.53Z"/><path class="cls-2" d="M149.9,17.31a4.05,4.05,0,1,1-8.1,0,4.06,4.06,0,1,1,8.1,0Zm-.6,0a3.47,3.47,0,1,0-6.92,0,3.47,3.47,0,1,0,6.92,0Z"/><path class="cls-2" d="M158,21.34h-.58V16.45a2.54,2.54,0,0,0-2.74-2.85,2.83,2.83,0,0,0-2.91,2.85v4.89h-.58v-8.1h.58v1.37A3.34,3.34,0,0,1,154.65,13a3.1,3.1,0,0,1,3.3,3.42Z"/><path class="cls-2" d="M160.53,18.54c0,1.39.64,2.33,2.19,2.27v.53c-1.75.16-2.77-1-2.77-2.8V13.82h-1.1v-.58H160V11.51h.58v1.73h2.19v.58h-2.19Z"/><path class="cls-2" d="M169.9,21.34a2.76,2.76,0,0,1-.22-1.18V20a4.1,4.1,0,0,1-3.49,1.48c-1.41,0-2.94-.71-2.94-2.26,0-1.84,1.72-2.27,3.45-2.43s3-.36,3-1.35c0-1.49-1.41-1.84-2.61-1.84a2.62,2.62,0,0,0-2.8,1.72h-.59c.36-1.45,1.57-2.29,3.39-2.29,2,0,3.2.89,3.2,2.41V20a4.44,4.44,0,0,0,.23,1.32Zm-.22-4.8a5.13,5.13,0,0,1-2.92.79c-2.08.2-2.88.75-2.88,1.87,0,1.34,1.51,1.7,2.31,1.7,1.75,0,3.49-.79,3.49-2.5Z"/><path class="cls-2" d="M176.24,21.53a4,4,0,0,1-3.46-2.14v1.95h-.58V9.64h.58v5.57A4,4,0,0,1,176.24,13a4.18,4.18,0,0,1,4.06,4.28A4.14,4.14,0,0,1,176.24,21.53Zm0-7.9a3.67,3.67,0,0,0,0,7.32,3.55,3.55,0,0,0,3.46-3.64A3.57,3.57,0,0,0,176.24,13.63Z"/><path class="cls-2" d="M182.2,21.34h-.58V9.64h.58Z"/><path class="cls-2" d="M184.11,17.28A3.57,3.57,0,0,0,187.66,21a3.1,3.1,0,0,0,3.17-2.13h.61a3.69,3.69,0,0,1-3.78,2.71,4.14,4.14,0,0,1-4.13-4.22,4,4,0,1,1,8.08,0ZM191,16.7a3.42,3.42,0,0,0-6.81,0Z"/><path class="cls-2" d="M198.42,20.59a3.73,3.73,0,0,1-2.67.94c-2.05,0-3.49-.9-3.76-2.55h.58c.28,1.31,1.45,2,3.16,2a3.19,3.19,0,0,0,2.27-.8,1.47,1.47,0,0,0,.39-1.12c0-1-.83-1.49-2.82-1.78-1.4-.2-3.13-.44-3.16-2,0-1.1,1-2.21,3.07-2.21,1.79,0,3,.81,3.32,2.27h-.6a2.52,2.52,0,0,0-2.7-1.71c-1.47,0-2.51.7-2.49,1.65s.87,1.22,2.66,1.48,3.24.69,3.32,2.32A2.15,2.15,0,0,1,198.42,20.59Z"/></svg>