<svg id="Layer_1" data-name="Layer 1" xmlns="http://www.w3.org/2000/svg" viewBox="0 0 115.74 33.9"><defs><style>.cls-1{fill:#fff;}.cls-2{fill:#e31937;}</style></defs><rect class="cls-1" width="115.74" height="33.9"/><path class="cls-2" d="M21.63,12a.59.59,0,0,0-.65-.62H12a.62.62,0,1,0,0,1.24h1.31a.8.8,0,0,1,.79.79v8.24a.79.79,0,0,0,.79.79H18.1a.8.8,0,0,0,.79-.79V13.45a.79.79,0,0,1,.79-.79H21A.59.59,0,0,0,21.63,12Z"/><path class="cls-2" d="M42.16,11.42c-.31,0-.56.22-.56.65v1.85a.51.51,0,0,1-.74.51L33.5,11.7a3.76,3.76,0,0,0-1.3-.28.77.77,0,0,0-.56.79v9.62c0,.43.25.65.56.65s.56-.22.56-.65V20a.51.51,0,0,1,.74-.51l7.36,2.74a4.36,4.36,0,0,0,1.3.28c.3,0,.55-.36.55-.79V12.07C42.71,11.64,42.46,11.42,42.16,11.42Z"/><path class="cls-2" d="M66.46,17a5.65,5.65,0,1,1-5.65-5.65A5.65,5.65,0,0,1,66.46,17Z"/><path class="cls-2" d="M49.42,15.23a.45.45,0,0,1-.45-.45v-3a3.49,3.49,0,0,0,0-.44h0A5.65,5.65,0,1,0,54.61,17a6.37,6.37,0,0,0-.17-1.29.58.58,0,0,0-.54-.43Z"/><path class="cls-2" d="M26,21.05a1.13,1.13,0,0,1,.92.56l.17.31a1.15,1.15,0,0,0,.93.56h2.76a.35.35,0,0,0,.33-.56L25.72,11.63c-.16-.31-.43-.31-.59,0L19.7,21.92a.35.35,0,0,0,.34.56h.23a.9.9,0,0,0,.85-.41l.24-.46a1.15,1.15,0,0,1,.93-.56Z"/><path class="cls-2" d="M76.6,13.6a3,3,0,0,0-2.39.69,2.84,2.84,0,0,0-.9,2.16v4.89h-.6v-8.1h.6v1.35a2.54,2.54,0,0,1,.53-.72,3.43,3.43,0,0,1,2.76-.8Z"/><path class="cls-2" d="M77,17.28A3.57,3.57,0,0,0,80.51,21a3.1,3.1,0,0,0,3.17-2.13h.61a3.69,3.69,0,0,1-3.78,2.71,4.14,4.14,0,0,1-4.13-4.22,4,4,0,1,1,8.08,0Zm6.87-.58a3.42,3.42,0,0,0-6.81,0Z"/><path class="cls-2" d="M91.27,20.59a3.73,3.73,0,0,1-2.67.94c-2,0-3.49-.9-3.76-2.55h.58c.28,1.31,1.45,2,3.16,2a3.19,3.19,0,0,0,2.27-.8,1.47,1.47,0,0,0,.39-1.12c0-1-.83-1.49-2.81-1.78-1.4-.2-3.14-.44-3.17-2,0-1.1,1-2.21,3.07-2.21,1.79,0,3,.81,3.32,2.27h-.6a2.52,2.52,0,0,0-2.7-1.71c-1.47,0-2.5.7-2.49,1.65s.87,1.22,2.66,1.48,3.24.69,3.32,2.32A2.15,2.15,0,0,1,91.27,20.59Z"/><path class="cls-2" d="M93.88,18.54c0,1.38.65,2.33,2.19,2.27v.53c-1.75.16-2.77-1-2.77-2.8V13.82H92.2v-.58h1.1V11.51h.58v1.73h2.19v.58H93.88Z"/><path class="cls-2" d="M104.58,17.31a4.05,4.05,0,1,1-8.1,0,4.06,4.06,0,1,1,8.1,0Zm-.6,0a3.47,3.47,0,1,0-6.92,0,3.47,3.47,0,1,0,6.92,0Zm-3.87-6.79h.71l1.27,1.56h-.7l-.93-1.17-.91,1.17h-.71Z"/></svg>