<svg id="Layer_1" data-name="Layer 1" xmlns="http://www.w3.org/2000/svg" viewBox="0 0 117.74 33.9"><defs><style>.cls-1{fill:#607d8a;}.cls-2{fill:#fff;}</style></defs><rect class="cls-1" width="117.74" height="33.9"/><path class="cls-2" d="M21.63,12a.59.59,0,0,0-.65-.62H12a.62.62,0,1,0,0,1.24h1.31a.8.8,0,0,1,.79.79v8.24a.79.79,0,0,0,.79.79H18.1a.8.8,0,0,0,.79-.79V13.45a.79.79,0,0,1,.79-.79H21A.59.59,0,0,0,21.63,12Z"/><path class="cls-2" d="M42.16,11.42c-.31,0-.56.22-.56.65v1.85a.51.51,0,0,1-.74.51L33.5,11.7a3.76,3.76,0,0,0-1.3-.28.77.77,0,0,0-.56.79v9.62c0,.43.25.65.56.65s.56-.22.56-.65V20a.51.51,0,0,1,.74-.51l7.36,2.74a4.36,4.36,0,0,0,1.3.28c.3,0,.55-.36.55-.79V12.07C42.71,11.64,42.46,11.42,42.16,11.42Z"/><path class="cls-2" d="M66.46,17a5.65,5.65,0,1,1-5.65-5.65A5.65,5.65,0,0,1,66.46,17Z"/><path class="cls-2" d="M49.42,15.23a.45.45,0,0,1-.45-.45v-3a3.49,3.49,0,0,0,0-.44h0A5.65,5.65,0,1,0,54.61,17a6.37,6.37,0,0,0-.17-1.29.58.58,0,0,0-.54-.43Z"/><path class="cls-2" d="M26,21.05a1.13,1.13,0,0,1,.92.56l.17.31a1.15,1.15,0,0,0,.93.56h2.76a.35.35,0,0,0,.33-.56L25.72,11.63c-.16-.31-.43-.31-.59,0L19.7,21.92a.35.35,0,0,0,.34.56h.23a.9.9,0,0,0,.85-.41l.24-.46a1.15,1.15,0,0,1,.93-.56Z"/><path class="cls-2" d="M79.52,21.34h-.58V16.45A2.54,2.54,0,0,0,76.2,13.6a2.83,2.83,0,0,0-2.91,2.85v4.89h-.58v-8.1h.58v1.37A3.35,3.35,0,0,1,76.22,13a3.1,3.1,0,0,1,3.3,3.42Z"/><path class="cls-2" d="M88,21.34h-.58V20a3.14,3.14,0,0,1-2.83,1.53,3.29,3.29,0,0,1-3.4-3.4V13.24h.58v4.89a2.83,2.83,0,0,0,5.65,0V13.24H88Z"/><path class="cls-2" d="M94,21.53a4,4,0,0,1-3.46-2.14v1.95H90V9.64h.58V15.2A3.94,3.94,0,0,1,94,13a4.18,4.18,0,0,1,4.06,4.28A4.14,4.14,0,0,1,94,21.53Zm0-7.9A3.67,3.67,0,0,0,94,21a3.55,3.55,0,0,0,3.46-3.64A3.57,3.57,0,0,0,94,13.63Z"/><path class="cls-2" d="M99.17,17.28A3.57,3.57,0,0,0,102.72,21a3.1,3.1,0,0,0,3.17-2.13h.61a3.69,3.69,0,0,1-3.78,2.71,4.14,4.14,0,0,1-4.13-4.22,4,4,0,1,1,8.08,0ZM106,16.7a3.42,3.42,0,0,0-6.81,0Z"/></svg>