<svg id="Layer_1" data-name="Layer 1" xmlns="http://www.w3.org/2000/svg" viewBox="0 0 97.72 71.34"><defs><style>.cls-1{fill:#fff;}.cls-2{fill:#2fa7df;}</style></defs><polygon class="cls-1" points="97.82 0 0 0 -0.11 71.34 97.72 71.34 97.82 0"/><path class="cls-2" d="M31.78,17a.59.59,0,0,0-.65-.62h-9a.62.62,0,1,0,0,1.24h1.3a.79.79,0,0,1,.79.79v8.22a.79.79,0,0,0,.79.79h3.25a.79.79,0,0,0,.79-.79V18.42a.79.79,0,0,1,.79-.79h1.3A.59.59,0,0,0,31.78,17Z"/><path class="cls-2" d="M52.28,16.39c-.31,0-.56.21-.56.65v1.84a.51.51,0,0,1-.74.51l-7.35-2.73a3.67,3.67,0,0,0-1.3-.27.75.75,0,0,0-.56.79v9.6a.57.57,0,0,0,.56.65c.31,0,.56-.22.56-.65V24.92a.51.51,0,0,1,.74-.51L51,27.15a4.36,4.36,0,0,0,1.3.28c.3,0,.55-.36.55-.79V17C52.83,16.6,52.58,16.39,52.28,16.39Z"/><path class="cls-2" d="M76.54,21.91a5.64,5.64,0,1,1-5.64-5.64A5.64,5.64,0,0,1,76.54,21.91Z"/><path class="cls-2" d="M59.53,20.19a.45.45,0,0,1-.45-.45v-3a3.49,3.49,0,0,0,0-.44h0a5.64,5.64,0,1,0,5.64,5.64,6.37,6.37,0,0,0-.17-1.29.58.58,0,0,0-.54-.43Z"/><path class="cls-2" d="M36.17,26a1.16,1.16,0,0,1,.93.56l.16.31a1.15,1.15,0,0,0,.93.56h2.75a.35.35,0,0,0,.34-.56L35.87,16.59c-.17-.3-.43-.3-.6,0L29.86,26.87a.35.35,0,0,0,.34.56h.22a.89.89,0,0,0,.85-.41l.24-.46a1.15,1.15,0,0,1,.93-.56Z"/><path class="cls-2" d="M27.67,47.56c0,3.3-2.12,5.52-5.28,5.52a4.85,4.85,0,0,1-5-3.51h.81a4.13,4.13,0,0,0,4.17,2.74c2.74,0,4.51-1.86,4.51-4.75v-2.2a5,5,0,0,1-4.55,2.76,5.62,5.62,0,0,1,0-11.23,5,5,0,0,1,4.55,2.79V37.16h.77Zm-5.32-9.88a4.83,4.83,0,0,0,0,9.65,4.52,4.52,0,0,0,4.55-4.79A4.55,4.55,0,0,0,22.35,37.68Z"/><path class="cls-2" d="M30,42.5a4.7,4.7,0,0,0,4.69,4.83,4.07,4.07,0,0,0,4.17-2.8h.81a4.85,4.85,0,0,1-5,3.57,5.61,5.61,0,0,1-.12-11.21,5.54,5.54,0,0,1,5.33,5.61ZM39,41.73a4.52,4.52,0,0,0-9,0Z"/><path class="cls-2" d="M48.86,46.86a4.94,4.94,0,0,1-3.53,1.24c-2.7,0-4.61-1.18-5-3.36h.77c.37,1.72,1.91,2.63,4.17,2.63a4.17,4.17,0,0,0,3-1,2,2,0,0,0,.52-1.48c0-1.3-1.1-2-3.72-2.34-1.84-.27-4.13-.58-4.17-2.7,0-1.45,1.37-2.91,4-2.91,2.36,0,3.92,1.06,4.38,3h-.79c-.44-1.43-1.66-2.26-3.57-2.26s-3.3.94-3.28,2.18,1.14,1.62,3.51,2,4.27.91,4.38,3.07A2.83,2.83,0,0,1,48.86,46.86Z"/><path class="cls-2" d="M52.3,44.16c0,1.82.86,3.07,2.89,3v.7c-2.3.21-3.65-1.31-3.65-3.69V37.93H50.08v-.77h1.46V34.88h.76v2.28h2.89v.77H52.3Z"/><path class="cls-2" d="M57.64,35.36h-.77V33.45h.77Zm0,12.49h-.77V37.16h.77Z"/><path class="cls-2" d="M70.07,42.54a5.35,5.35,0,1,1-5.35-5.65A5.47,5.47,0,0,1,70.07,42.54Zm-.79,0a4.57,4.57,0,1,0-4.56,4.83A4.74,4.74,0,0,0,69.28,42.54Zm-4-7h-.85l1.73-2.12h1Z"/><path class="cls-2" d="M80.7,47.85h-.77V41.4c0-2.35-1.27-3.76-3.61-3.76a3.72,3.72,0,0,0-3.84,3.76v6.45h-.77V37.16h.77V39a4.4,4.4,0,0,1,3.86-2.08c2.74,0,4.36,1.73,4.36,4.51Z"/></svg>