<?xml version="1.0" encoding="utf-8"?>
<!-- Generator: Adobe Illustrator 27.0.1, SVG Export Plug-In . SVG Version: 6.00 Build 0)  -->
<svg version="1.1" id="Layer_1" xmlns="http://www.w3.org/2000/svg" xmlns:xlink="http://www.w3.org/1999/xlink" x="0px" y="0px"
	 viewBox="0 0 98.6 71.3" style="enable-background:new 0 0 98.6 71.3;" xml:space="preserve">
<style type="text/css">
	.st0{fill:#FFE458;}
	.st1{fill:#FFDB17;}
	.st2{fill:#FFFFFF;}
	.st3{fill:#2B2B2B;}
	.st4{fill:#FFF01A;}
</style>
<g>
	<path class="st0" d="M82.6,41.9"/>
	<path class="st1" d="M52.1,34.9"/>
	<path class="st2" d="M66.3,28c-0.4-2.9-2.7-4.3-3.1-4.6c-1.5-0.9-3-1.1-4.2-1c0-0.6-0.1-1.1-0.4-1.7c-0.8-2.2-3.1-3.8-5.3-3.9
		c-2.3-0.1-4,1.2-4.5,1.6c-0.3,0.2-0.5,0.5-0.7,0.7c-2-1.5-4.3-1.7-5.3-1.7c-4.7,0-9.9,3.7-10.4,8.6c-0.2,2.5,0.7,5.4,2.8,7.2
		c2.1,1.7,4.6,1.8,6.2,1.8c3.2,0,6.6,0.1,10,0.1c0.1,0,0.2,0,0.3,0c0.1,0,0.6,0,1.2,0c1.1,0,2.3,0,3.4,0c0.3,0,0.6,0,1,0
		c1,0,1.5,0,2.1,0c0.4,0,0.7,0,1.1,0c0,0-0.1,0-0.1-0.1c0.2,0,0.5-0.1,0.7-0.1c0.9-0.2,2.6-0.7,3.8-2.2C66.6,30.8,66.3,28.4,66.3,28
		z"/>
	<path class="st1" d="M55.6,35.1"/>
	<g>
		<g>
			<path class="st3" d="M26.2,42c0.4-0.5,1.1-0.8,2.1-0.8c0.1,0,0.2,0,0.3,0c0.1,0,0.2,0,0.4,0l0,1.4c-0.2,0-0.3,0-0.3,0
				c-0.1,0-0.1,0-0.2,0c-0.5,0-0.8,0.1-0.8,0.4c-0.1,0.2-0.1,0.9-0.1,1.9l1.5,0l0,1.2l-1.6,0l0,8l-1.5,0l0-8l-1.3,0l0-1.2l1.3,0
				l0-1.4C25.9,42.8,26,42.3,26.2,42z"/>
			<path class="st3" d="M35.3,48.5c0.4,0,0.6-0.2,0.7-0.4c0.1-0.1,0.1-0.3,0.1-0.6c0-0.5-0.2-0.9-0.6-1.2c-0.4-0.2-0.9-0.4-1.6-0.4
				c-0.8,0-1.4,0.2-1.7,0.7c-0.2,0.2-0.3,0.6-0.4,1.1l-1.4,0c0-1.1,0.4-1.9,1.1-2.4c0.7-0.4,1.5-0.7,2.5-0.7c1.1,0,2,0.2,2.6,0.6
				c0.7,0.4,1,1.1,1,1.9l0,5.3c0,0.2,0,0.3,0.1,0.4C37.8,53,38,53,38.2,53c0.1,0,0.1,0,0.2,0c0.1,0,0.2,0,0.3,0l0,1.1
				c-0.2,0.1-0.4,0.1-0.6,0.1s-0.3,0-0.5,0c-0.5,0-0.9-0.2-1.2-0.6c-0.1-0.2-0.2-0.5-0.3-0.9c-0.3,0.4-0.8,0.8-1.4,1.1
				s-1.2,0.5-2,0.5c-0.9,0-1.6-0.3-2.1-0.8s-0.8-1.2-0.8-2c0-0.9,0.3-1.5,0.8-2s1.2-0.8,2.1-0.9L35.3,48.5z M32.1,52.7
				c0.3,0.3,0.7,0.4,1.2,0.4c0.5,0,1.1-0.1,1.6-0.4c0.9-0.4,1.3-1.1,1.3-2.1l0-1.3c-0.2,0.1-0.4,0.2-0.7,0.3
				c-0.3,0.1-0.6,0.1-0.9,0.2L33.6,50c-0.6,0.1-1,0.2-1.3,0.4c-0.5,0.3-0.7,0.7-0.7,1.3C31.6,52,31.7,52.4,32.1,52.7z"/>
			<path class="st3" d="M46.3,45.3c0.7,0.5,1,1.4,1.2,2.6L46,48c-0.1-0.6-0.3-1-0.6-1.4C45,46.2,44.5,46,43.8,46
				c-1,0-1.7,0.5-2.1,1.4c-0.3,0.6-0.4,1.4-0.4,2.3c0,0.9,0.2,1.7,0.6,2.3c0.4,0.6,1,1,1.8,1c0.6,0,1.2-0.2,1.5-0.6
				c0.4-0.4,0.6-0.9,0.8-1.6l1.5,0c-0.2,1.2-0.6,2.1-1.3,2.7c-0.7,0.6-1.6,0.8-2.7,0.8c-1.2,0-2.2-0.4-2.9-1.3
				c-0.7-0.9-1.1-2-1.1-3.3c0-1.6,0.4-2.9,1.2-3.8c0.8-0.9,1.8-1.3,3-1.3C44.8,44.6,45.7,44.8,46.3,45.3z"/>
			<path class="st3" d="M49.4,42.3l1.6,0l0,2.6l1.5,0l0,1.3l-1.5,0l0,6c0,0.3,0.1,0.5,0.3,0.6c0.1,0.1,0.3,0.1,0.6,0.1
				c0.1,0,0.2,0,0.2,0c0.1,0,0.2,0,0.3,0l0,1.2c-0.2,0.1-0.4,0.1-0.6,0.1c-0.2,0-0.4,0-0.6,0c-0.7,0-1.2-0.2-1.5-0.6
				c-0.3-0.4-0.4-0.9-0.4-1.4l0-6.1l-1.3,0l0-1.3l1.3,0L49.4,42.3z"/>
			<path class="st3" d="M55.5,44.9l0,6.1c0,0.5,0.1,0.9,0.2,1.2c0.3,0.6,0.8,0.8,1.5,0.8c1.1,0,1.8-0.5,2.2-1.4
				c0.2-0.5,0.3-1.2,0.3-2.1l0-4.5l1.6,0l0,9.2l-1.5,0l0-1.4c-0.2,0.4-0.5,0.6-0.8,0.9c-0.6,0.5-1.3,0.7-2.2,0.7
				c-1.3,0-2.2-0.4-2.7-1.3c-0.3-0.5-0.4-1.1-0.4-1.9l0-6.3L55.5,44.9z"/>
			<path class="st3" d="M63.8,44.9l1.5,0l0,1.6c0.1-0.3,0.4-0.7,0.9-1.1c0.5-0.4,1-0.7,1.6-0.7c0,0,0.1,0,0.1,0c0.1,0,0.2,0,0.4,0
				l0,1.6c-0.1,0-0.2,0-0.3,0c-0.1,0-0.2,0-0.3,0c-0.8,0-1.4,0.2-1.8,0.8c-0.4,0.5-0.6,1.1-0.6,1.7l0,5.3l-1.6,0L63.8,44.9z"/>
			<path class="st3" d="M74.6,48.6c0.4,0,0.6-0.2,0.7-0.4c0.1-0.1,0.1-0.3,0.1-0.6c0-0.5-0.2-0.9-0.6-1.2C74.5,46.1,74,46,73.3,46
				c-0.8,0-1.4,0.2-1.7,0.7c-0.2,0.2-0.3,0.6-0.4,1.1l-1.4,0c0-1.1,0.4-1.9,1.1-2.4c0.7-0.4,1.5-0.7,2.5-0.7c1.1,0,2,0.2,2.6,0.6
				c0.7,0.4,1,1.1,1,1.9l0,5.3c0,0.2,0,0.3,0.1,0.4c0.1,0.1,0.2,0.1,0.4,0.1c0.1,0,0.1,0,0.2,0c0.1,0,0.2,0,0.3,0l0,1.1
				c-0.2,0.1-0.4,0.1-0.6,0.1c-0.1,0-0.3,0-0.5,0c-0.5,0-0.9-0.2-1.2-0.6c-0.1-0.2-0.2-0.5-0.3-0.9c-0.3,0.4-0.8,0.8-1.4,1.1
				c-0.6,0.3-1.2,0.5-2,0.5c-0.9,0-1.6-0.3-2.1-0.8c-0.5-0.5-0.8-1.2-0.8-2c0-0.9,0.3-1.5,0.8-2c0.5-0.5,1.2-0.8,2.1-0.9L74.6,48.6z
				 M71.3,52.8c0.3,0.3,0.7,0.4,1.2,0.4c0.5,0,1.1-0.1,1.6-0.4c0.9-0.4,1.3-1.1,1.3-2.1l0-1.3c-0.2,0.1-0.4,0.2-0.7,0.3
				c-0.3,0.1-0.6,0.1-0.9,0.2l-0.9,0.1c-0.6,0.1-1,0.2-1.3,0.4c-0.5,0.3-0.7,0.7-0.7,1.3C70.9,52.2,71,52.5,71.3,52.8z"/>
			<path class="st3" d="M81.4,48.2l0.7,0l0,0.8l-0.7,0L81.4,48.2z M81.3,49.8l0.7,0l0,4.3l-0.7,0L81.3,49.8z"/>
			<path class="st3" d="M86.4,50.3c0.4,0.4,0.6,0.9,0.6,1.7c0,0.7-0.2,1.3-0.5,1.7s-0.9,0.7-1.6,0.7c-0.6,0-1.1-0.2-1.4-0.6
				c-0.4-0.4-0.5-1-0.5-1.6c0-0.7,0.2-1.3,0.6-1.7c0.4-0.4,0.9-0.6,1.5-0.6C85.5,49.7,86,49.9,86.4,50.3z M85.9,53.2
				c0.2-0.4,0.3-0.8,0.3-1.2c0-0.4-0.1-0.7-0.2-1c-0.2-0.4-0.6-0.6-1.1-0.6c-0.4,0-0.8,0.2-1,0.5c-0.2,0.3-0.3,0.8-0.3,1.2
				c0,0.5,0.1,0.9,0.3,1.2c0.2,0.3,0.5,0.5,1,0.5C85.4,53.7,85.7,53.5,85.9,53.2z"/>
			<g>
				<g>
					<g>
						<path class="st3" d="M25.6,38.6c0-0.5-0.3-0.9-0.8-0.9H12.5c-0.5,0-0.8,0.4-0.8,0.9s0.3,0.9,0.8,0.9h2.2c0.5,0,1,0.5,1,1.2
							v12.6c0,0.7,0.4,1.2,1,1.2h4c0.5,0,1-0.5,1-1.2V40.8c0-0.7,0.4-1.2,1-1.2h2.2C25.3,39.6,25.6,39.1,25.6,38.6z"/>
					</g>
				</g>
			</g>
		</g>
		<g>
			<path class="st1" d="M52.1,26.7c1.1,2.4,3.4,5.6,8.6,8.3c-6.9,0.1-13.3,0.1-19.3,0c-1.7,0-4.2-0.1-6.2-1.8
				c-2.1-1.8-3.1-4.7-2.8-7.2c0.5-5,5.7-8.7,10.4-8.6c1,0,3.4,0.2,5.4,1.8C50.7,21.3,50.8,23.9,52.1,26.7z"/>
			<path class="st0" d="M58.6,20.7c-0.8-2.2-3.1-3.8-5.3-3.9c-2.3-0.1-4,1.2-4.5,1.6c-3.1,2.5-1.7,7.5-3.8,8.2c-0.5,0.2-0.9,0-1.2,0
				c4.5,3.7,10,3.9,12.9,1.3C58.2,26.4,59.7,23.5,58.6,20.7z"/>
			<g>
				<path class="st4" d="M43.4,26.3c3.7,2.1,6,1.9,7.4,1.4c2.9-1,3-3.9,6.3-5c0.4-0.1,3.4-1.1,6.1,0.6c0.4,0.3,2.7,1.7,3.1,4.6
					c0,0.3,0.4,2.8-1.3,4.8c-1.2,1.5-2.8,2-3.8,2.2c-0.5,0.1-1.3,0.1-1.4,0.1c-0.7,0-1.3,0-2.4,0c-1.2,0-1.9,0-2,0c-2,0-3.4,0-3.6,0
					C50.3,35.2,47.9,33.5,43.4,26.3z"/>
			</g>
			<path class="st1" d="M56.4,35.1"/>
		</g>
		<path class="st3" d="M79.6,53.9L79.6,53.9c-0.3,0-0.5-0.2-0.5-0.5v0c0-0.3,0.2-0.5,0.5-0.5h0c0.3,0,0.5,0.2,0.5,0.5v0
			C80.1,53.7,79.9,53.9,79.6,53.9z"/>
	</g>
</g>
</svg>
