<svg id="Layer_1" data-name="Layer 1" xmlns="http://www.w3.org/2000/svg" viewBox="0 0 97.72 71.34"><defs><style>.cls-1{fill:#fff;}.cls-2{fill:#f47d30;}</style></defs><polygon class="cls-1" points="97.82 0 0 0 -0.11 71.34 97.72 71.34 97.82 0"/><path class="cls-2" d="M31.5,12.91a.59.59,0,0,0-.65-.62h-9a.62.62,0,1,0,0,1.24h1.3a.8.8,0,0,1,.79.79v8.22a.79.79,0,0,0,.79.79H28a.79.79,0,0,0,.79-.79V14.32a.8.8,0,0,1,.79-.79h1.3A.59.59,0,0,0,31.5,12.91Z"/><path class="cls-2" d="M52,12.29c-.31,0-.56.22-.56.65v1.84a.51.51,0,0,1-.74.52l-7.35-2.73a3.71,3.71,0,0,0-1.3-.28.77.77,0,0,0-.56.79v9.6c0,.44.26.65.56.65s.56-.21.56-.65V20.83a.51.51,0,0,1,.74-.52l7.35,2.75a4.64,4.64,0,0,0,1.3.27c.3,0,.55-.35.55-.79v-9.6C52.55,12.51,52.3,12.29,52,12.29Z"/><path class="cls-2" d="M76.26,17.81a5.64,5.64,0,1,1-5.64-5.64A5.63,5.63,0,0,1,76.26,17.81Z"/><path class="cls-2" d="M59.25,16.09a.45.45,0,0,1-.45-.44v-3a3.49,3.49,0,0,0,0-.44h0a5.64,5.64,0,1,0,5.64,5.64,6.37,6.37,0,0,0-.17-1.29.59.59,0,0,0-.54-.43Z"/><path class="cls-2" d="M35.89,21.9a1.17,1.17,0,0,1,.93.56l.16.31a1.15,1.15,0,0,0,.93.56h2.75a.35.35,0,0,0,.34-.56L35.59,12.5c-.17-.31-.43-.31-.59,0L29.58,22.77a.35.35,0,0,0,.34.56h.22a.88.88,0,0,0,.85-.4l.24-.47a1.17,1.17,0,0,1,.93-.56Z"/><path class="cls-2" d="M17.43,37.29a4.07,4.07,0,0,0,4.05,4.18,3.52,3.52,0,0,0,3.61-2.42h.7a4.21,4.21,0,0,1-4.31,3.08,4.84,4.84,0,0,1-.11-9.68A4.77,4.77,0,0,1,26,37.29Zm7.84-.66a4.06,4.06,0,0,0-3.9-3.5,4,4,0,0,0-3.87,3.5Z"/><path class="cls-2" d="M33.75,41.06a4.24,4.24,0,0,1-3.05,1.07c-2.33,0-4-1-4.28-2.9h.66c.32,1.49,1.65,2.27,3.6,2.27a3.56,3.56,0,0,0,2.58-.91,1.6,1.6,0,0,0,.45-1.27c0-1.13-1-1.71-3.21-2-1.59-.23-3.56-.5-3.6-2.33,0-1.26,1.18-2.51,3.5-2.51,2,0,3.38.92,3.78,2.58H33.5a2.89,2.89,0,0,0-3.09-2c-1.66,0-2.85.8-2.83,1.88s1,1.4,3,1.69,3.69.78,3.78,2.65A2.43,2.43,0,0,1,33.75,41.06Z"/><path class="cls-2" d="M36.73,38.73c0,1.57.73,2.65,2.49,2.58v.61c-2,.18-3.16-1.13-3.16-3.19V33.35H34.81v-.67h1.25v-2h.67v2h2.49v.67H36.73Z"/><path class="cls-2" d="M48.1,41.92h-.67V40.39a3.58,3.58,0,0,1-3.23,1.74,3.75,3.75,0,0,1-3.87-3.87V32.68H41v5.58a3.22,3.22,0,0,0,6.43,0V32.68h.67Z"/><path class="cls-2" d="M58.73,41.92h-.66V39.69a4.44,4.44,0,0,1-4,2.44,4.85,4.85,0,0,1,0-9.68,4.45,4.45,0,0,1,4,2.47V28.58h.66Zm-4.61-8.79a4.18,4.18,0,1,0,4,4.2A4.08,4.08,0,0,0,54.12,33.13Z"/><path class="cls-2" d="M61.71,31.12h-.66V29.47h.66Zm0,10.8h-.66V32.68h.66Z"/><path class="cls-2" d="M72.45,37.33a4.62,4.62,0,1,1-4.63-4.88A4.72,4.72,0,0,1,72.45,37.33Zm-.68,0a4,4,0,1,0-4,4.17A4.1,4.1,0,0,0,71.77,37.33Z"/><path class="cls-2" d="M80.31,41.06a4.24,4.24,0,0,1-3,1.07c-2.33,0-4-1-4.29-2.9h.67c.32,1.49,1.64,2.27,3.6,2.27a3.58,3.58,0,0,0,2.58-.91,1.64,1.64,0,0,0,.45-1.27c0-1.13-1-1.71-3.21-2-1.6-.23-3.57-.5-3.6-2.33,0-1.26,1.18-2.51,3.49-2.51,2,0,3.39.92,3.79,2.58h-.69a2.87,2.87,0,0,0-3.08-2c-1.67,0-2.85.8-2.83,1.88s1,1.4,3,1.69,3.69.78,3.78,2.65A2.48,2.48,0,0,1,80.31,41.06Z"/><path class="cls-2" d="M16,59a4.85,4.85,0,0,1,0-9.68,4.38,4.38,0,0,1,4.27,3.09h-.72A3.73,3.73,0,0,0,16,50a4.18,4.18,0,0,0,0,8.34,3.64,3.64,0,0,0,3.57-2.42h.7A4.37,4.37,0,0,1,16,59Z"/><path class="cls-2" d="M30.35,54.15a4.62,4.62,0,1,1-4.63-4.88A4.72,4.72,0,0,1,30.35,54.15Zm-.68,0a4.1,4.1,0,0,0-4-4.25,4.22,4.22,0,0,0,0,8.43A4.08,4.08,0,0,0,29.67,54.15Z"/><path class="cls-2" d="M39.53,58.74h-.66V53.16a2.9,2.9,0,0,0-3.12-3.24,3.21,3.21,0,0,0-3.32,3.24v5.58h-.66V49.5h.66v1.56a3.81,3.81,0,0,1,3.34-1.79,3.53,3.53,0,0,1,3.76,3.89Z"/><path class="cls-2" d="M42.47,55.55c0,1.57.74,2.65,2.5,2.58v.61c-2,.18-3.16-1.13-3.16-3.19V50.17H40.56V49.5h1.25v-2h.66v2H45v.67h-2.5Z"/><path class="cls-2" d="M53.16,58.74a3.12,3.12,0,0,1-.25-1.35v-.18a4.71,4.71,0,0,1-4,1.69c-1.61,0-3.35-.81-3.35-2.58,0-2.1,2-2.58,3.92-2.76s3.41-.42,3.41-1.55c0-1.7-1.61-2.09-3-2.09-1.68,0-2.79.7-3.19,1.95h-.68c.41-1.65,1.79-2.6,3.87-2.6,2.32,0,3.64,1,3.64,2.74v5.22a5,5,0,0,0,.27,1.51Zm-.25-5.47c-.72.66-2.06.79-3.33.9-2.37.23-3.29.86-3.29,2.13,0,1.52,1.73,1.94,2.64,1.94,2,0,4-.9,4-2.85Z"/><path class="cls-2" d="M60.39,59a4.49,4.49,0,0,1-4-2.44v2.23h-.66V45.4h.66v6.35a4.51,4.51,0,0,1,4-2.48,4.84,4.84,0,0,1,0,9.68Zm0-9a4.18,4.18,0,0,0,0,8.34,4.18,4.18,0,0,0,0-8.34Z"/><path class="cls-2" d="M67.19,58.74h-.67V45.4h.67Z"/><path class="cls-2" d="M69.36,54.11a4.07,4.07,0,0,0,4,4.18A3.5,3.5,0,0,0,77,55.87h.7A4.19,4.19,0,0,1,73.41,59a4.84,4.84,0,0,1-.11-9.68,4.78,4.78,0,0,1,4.61,4.84Zm7.83-.66A4,4,0,0,0,73.3,50a4,4,0,0,0-3.87,3.5Z"/><path class="cls-2" d="M85.68,57.88A4.24,4.24,0,0,1,82.63,59c-2.33,0-4-1-4.29-2.9H79c.32,1.49,1.65,2.28,3.6,2.28a3.58,3.58,0,0,0,2.58-.92,1.64,1.64,0,0,0,.45-1.27c0-1.13-1-1.7-3.21-2-1.59-.23-3.57-.5-3.6-2.33,0-1.25,1.18-2.51,3.49-2.51,2.05,0,3.39.92,3.79,2.58h-.68a2.9,2.9,0,0,0-3.09-2c-1.67,0-2.85.81-2.83,1.88s1,1.4,3,1.69,3.69.79,3.78,2.65A2.46,2.46,0,0,1,85.68,57.88Z"/></svg>