<svg id="Layer_1" data-name="Layer 1" xmlns="http://www.w3.org/2000/svg" viewBox="0 0 97.72 71.34"><defs><style>.cls-1{fill:#f47d30;}.cls-2{fill:#fff;}</style></defs><polygon class="cls-1" points="97.82 0 0 0 -0.11 71.34 97.72 71.34 97.82 0"/><path class="cls-2" d="M31.38,12.91a.6.6,0,0,0-.65-.62h-9a.62.62,0,1,0,0,1.24H23a.79.79,0,0,1,.79.79v8.22a.79.79,0,0,0,.79.79h3.25a.79.79,0,0,0,.79-.79V14.32a.8.8,0,0,1,.79-.79h1.31A.6.6,0,0,0,31.38,12.91Z"/><path class="cls-2" d="M51.87,12.29c-.31,0-.56.22-.56.65v1.84a.51.51,0,0,1-.74.52l-7.35-2.73a3.67,3.67,0,0,0-1.29-.28.77.77,0,0,0-.56.79v9.6c0,.44.25.65.56.65s.55-.21.55-.65V20.83a.52.52,0,0,1,.74-.52l7.35,2.75a4.64,4.64,0,0,0,1.3.27c.31,0,.56-.35.56-.79v-9.6C52.43,12.51,52.18,12.29,51.87,12.29Z"/><path class="cls-2" d="M76.13,17.81a5.64,5.64,0,1,1-5.64-5.64A5.63,5.63,0,0,1,76.13,17.81Z"/><path class="cls-2" d="M59.12,16.09a.44.44,0,0,1-.44-.44v-3a2.59,2.59,0,0,0,0-.44h0a5.64,5.64,0,1,0,5.64,5.64,6.74,6.74,0,0,0-.16-1.29.61.61,0,0,0-.55-.43Z"/><path class="cls-2" d="M35.76,21.9a1.17,1.17,0,0,1,.93.56l.16.31a1.15,1.15,0,0,0,.93.56h2.76a.35.35,0,0,0,.33-.56L35.46,12.5c-.16-.31-.43-.31-.59,0L29.45,22.77a.35.35,0,0,0,.34.56H30a.88.88,0,0,0,.85-.4l.24-.47A1.19,1.19,0,0,1,32,21.9Z"/><path class="cls-2" d="M17.3,37.29a4.07,4.07,0,0,0,4.05,4.18A3.52,3.52,0,0,0,25,39.05h.7a4.21,4.21,0,0,1-4.31,3.08,4.84,4.84,0,0,1-.1-9.68,4.78,4.78,0,0,1,4.61,4.84Zm7.84-.66a4,4,0,0,0-3.89-3.5,4,4,0,0,0-3.88,3.5Z"/><path class="cls-2" d="M33.62,41.06a4.23,4.23,0,0,1-3,1.07c-2.33,0-4-1-4.28-2.9H27c.32,1.49,1.65,2.27,3.61,2.27a3.58,3.58,0,0,0,2.58-.91,1.68,1.68,0,0,0,.45-1.27c0-1.13-1-1.71-3.21-2-1.6-.23-3.57-.5-3.61-2.33,0-1.26,1.19-2.51,3.5-2.51,2,0,3.39.92,3.78,2.58h-.68a2.87,2.87,0,0,0-3.08-2c-1.67,0-2.85.8-2.84,1.88s1,1.4,3,1.69,3.7.78,3.79,2.65A2.48,2.48,0,0,1,33.62,41.06Z"/><path class="cls-2" d="M36.6,38.73c0,1.57.73,2.65,2.49,2.58v.61c-2,.18-3.15-1.13-3.15-3.19V33.35H34.68v-.67h1.26v-2h.66v2h2.49v.67H36.6Z"/><path class="cls-2" d="M48,41.92H47.3V40.39a3.57,3.57,0,0,1-3.22,1.74,3.75,3.75,0,0,1-3.88-3.87V32.68h.67v5.58a3.22,3.22,0,0,0,6.43,0V32.68H48Z"/><path class="cls-2" d="M58.6,41.92h-.66V39.69A4.42,4.42,0,0,1,54,42.13a4.85,4.85,0,0,1,0-9.68,4.43,4.43,0,0,1,3.95,2.47V28.58h.66ZM54,33.13a4.18,4.18,0,1,0,3.95,4.2A4.09,4.09,0,0,0,54,33.13Z"/><path class="cls-2" d="M61.58,31.12h-.66V29.47h.66Zm0,10.8h-.66V32.68h.66Z"/><path class="cls-2" d="M72.32,37.33a4.62,4.62,0,1,1-4.62-4.88A4.72,4.72,0,0,1,72.32,37.33Zm-.68,0A4,4,0,1,0,67.7,41.5,4.1,4.1,0,0,0,71.64,37.33Z"/><path class="cls-2" d="M80.18,41.06a4.24,4.24,0,0,1-3.05,1.07c-2.33,0-4-1-4.29-2.9h.67c.32,1.49,1.65,2.27,3.6,2.27a3.56,3.56,0,0,0,2.58-.91,1.6,1.6,0,0,0,.45-1.27c0-1.13-1-1.71-3.21-2-1.59-.23-3.57-.5-3.6-2.33,0-1.26,1.18-2.51,3.49-2.51,2.05,0,3.39.92,3.79,2.58h-.68a2.89,2.89,0,0,0-3.09-2c-1.66,0-2.85.8-2.83,1.88s1,1.4,3,1.69,3.69.78,3.78,2.65A2.43,2.43,0,0,1,80.18,41.06Z"/><path class="cls-2" d="M15.88,59a4.85,4.85,0,0,1,0-9.68,4.37,4.37,0,0,1,4.26,3.09h-.71A3.75,3.75,0,0,0,15.88,50a4.18,4.18,0,0,0,0,8.34,3.64,3.64,0,0,0,3.56-2.42h.7A4.37,4.37,0,0,1,15.88,59Z"/><path class="cls-2" d="M30.22,54.15a4.62,4.62,0,1,1-4.62-4.88A4.72,4.72,0,0,1,30.22,54.15Zm-.68,0A4.1,4.1,0,0,0,25.6,49.9a4.22,4.22,0,0,0,0,8.43A4.07,4.07,0,0,0,29.54,54.15Z"/><path class="cls-2" d="M39.4,58.74h-.66V53.16c0-2-1.09-3.24-3.12-3.24a3.22,3.22,0,0,0-3.32,3.24v5.58h-.66V49.5h.66v1.56a3.82,3.82,0,0,1,3.34-1.79c2.37,0,3.76,1.49,3.76,3.89Z"/><path class="cls-2" d="M42.35,55.55c0,1.57.73,2.65,2.49,2.58v.61c-2,.18-3.16-1.13-3.16-3.19V50.17H40.43V49.5h1.25v-2h.67v2h2.49v.67H42.35Z"/><path class="cls-2" d="M53,58.74a3.12,3.12,0,0,1-.25-1.35v-.18a4.71,4.71,0,0,1-4,1.69c-1.61,0-3.35-.81-3.35-2.58,0-2.1,1.95-2.58,3.93-2.76s3.4-.42,3.4-1.55c0-1.7-1.61-2.09-3-2.09-1.69,0-2.8.7-3.19,1.95h-.69c.42-1.65,1.8-2.6,3.88-2.6,2.31,0,3.64,1,3.64,2.74v5.22a4.72,4.72,0,0,0,.27,1.51Zm-.25-5.47c-.71.66-2.06.79-3.33.9-2.37.23-3.28.86-3.28,2.13,0,1.52,1.72,1.94,2.63,1.94,2,0,4-.9,4-2.85Z"/><path class="cls-2" d="M60.26,59a4.46,4.46,0,0,1-3.94-2.44v2.23h-.67V45.4h.67v6.35a4.48,4.48,0,0,1,3.94-2.48,4.84,4.84,0,0,1,0,9.68Zm0-9a4.18,4.18,0,1,0,3.95,4.2A4.09,4.09,0,0,0,60.26,50Z"/><path class="cls-2" d="M67.06,58.74H66.4V45.4h.66Z"/><path class="cls-2" d="M69.23,54.11a4.07,4.07,0,0,0,4,4.18,3.52,3.52,0,0,0,3.61-2.42h.7A4.21,4.21,0,0,1,73.28,59a4.84,4.84,0,0,1-.11-9.68,4.77,4.77,0,0,1,4.61,4.84Zm7.84-.66a4.06,4.06,0,0,0-3.9-3.5,4,4,0,0,0-3.87,3.5Z"/><path class="cls-2" d="M85.55,57.88a4.23,4.23,0,0,1-3,1.07c-2.33,0-4-1-4.28-2.9h.66c.32,1.49,1.65,2.28,3.6,2.28a3.57,3.57,0,0,0,2.58-.92,1.6,1.6,0,0,0,.45-1.27c0-1.13-1-1.7-3.21-2-1.59-.23-3.56-.5-3.6-2.33,0-1.25,1.18-2.51,3.5-2.51,2,0,3.38.92,3.78,2.58H85.3a2.9,2.9,0,0,0-3.09-2c-1.66,0-2.85.81-2.83,1.88s1,1.4,3,1.69,3.69.79,3.78,2.65A2.42,2.42,0,0,1,85.55,57.88Z"/></svg>