<svg id="Layer_1" data-name="Layer 1" xmlns="http://www.w3.org/2000/svg" viewBox="0 0 97.72 71.34"><defs><style>.cls-1{fill:#2fa7df;}.cls-2{fill:#fff;}</style></defs><polygon class="cls-1" points="97.82 0 0 0 -0.11 71.34 97.72 71.34 97.82 0"/><path class="cls-2" d="M31.63,12.91a.6.6,0,0,0-.65-.62H22a.62.62,0,1,0,0,1.24h1.3a.79.79,0,0,1,.79.79v8.22a.79.79,0,0,0,.79.79H28.1a.79.79,0,0,0,.79-.79V14.32a.79.79,0,0,1,.79-.79H31A.6.6,0,0,0,31.63,12.91Z"/><path class="cls-2" d="M52.12,12.29c-.31,0-.56.22-.56.65v1.84a.51.51,0,0,1-.74.52l-7.34-2.73a3.76,3.76,0,0,0-1.3-.28.77.77,0,0,0-.56.79v9.6c0,.44.25.65.56.65s.55-.21.55-.65V20.83a.52.52,0,0,1,.75-.52l7.34,2.75a4.64,4.64,0,0,0,1.3.27c.31,0,.56-.35.56-.79v-9.6C52.68,12.51,52.43,12.29,52.12,12.29Z"/><path class="cls-2" d="M76.39,17.81a5.65,5.65,0,1,1-5.65-5.64A5.64,5.64,0,0,1,76.39,17.81Z"/><path class="cls-2" d="M59.37,16.09a.44.44,0,0,1-.44-.44v-3c0-.24,0-.44,0-.44h0a5.64,5.64,0,1,0,5.64,5.64,6.74,6.74,0,0,0-.16-1.29.61.61,0,0,0-.55-.43Z"/><path class="cls-2" d="M36,21.9a1.17,1.17,0,0,1,.92.56l.16.31a1.16,1.16,0,0,0,.93.56h2.76c.35,0,.5-.25.33-.56L35.71,12.5c-.16-.31-.43-.31-.59,0L29.7,22.77a.35.35,0,0,0,.34.56h.22a.88.88,0,0,0,.85-.4l.24-.47a1.19,1.19,0,0,1,.93-.56Z"/><path class="cls-2" d="M33.17,41.18a4.25,4.25,0,0,1-3.74-2.31v6H28.8V32.23h.63v2.12A4.24,4.24,0,0,1,33.17,32a4.59,4.59,0,0,1,0,9.17Zm0-8.53a4,4,0,0,0,0,7.9,4,4,0,0,0,0-7.9Z"/><path class="cls-2" d="M46.18,41h-.63V39.53a3.41,3.41,0,0,1-3.06,1.65,3.56,3.56,0,0,1-3.67-3.67V32.23h.63v5.28a3.05,3.05,0,0,0,6.1,0V32.23h.63Z"/><path class="cls-2" d="M55.63,41H55V35.69a2.74,2.74,0,0,0-3-3.07,3,3,0,0,0-3.14,3.07V41h-.63V32.23h.63v1.48A3.6,3.6,0,0,1,52.07,32a3.34,3.34,0,0,1,3.56,3.68Z"/><path class="cls-2" d="M58.42,38c0,1.5.7,2.51,2.36,2.45V41c-1.88.17-3-1.07-3-3V32.86H56.6v-.63h1.19V30.36h.63v1.87h2.36v.63H58.42Z"/><path class="cls-2" d="M70,36.63A4.38,4.38,0,1,1,65.59,32,4.48,4.48,0,0,1,70,36.63Zm-.65,0a3.74,3.74,0,1,0-3.73,3.95A3.88,3.88,0,0,0,69.32,36.63Z"/><path class="cls-2" d="M26.47,58.9h-.63V56.79A4.2,4.2,0,0,1,22.1,59.1a4.59,4.59,0,0,1,0-9.17,4.2,4.2,0,0,1,3.74,2.35v-6h.63ZM22.1,50.58a4,4,0,0,0,0,7.9,4,4,0,0,0,0-7.9Z"/><path class="cls-2" d="M28.44,54.52a3.85,3.85,0,0,0,3.84,4,3.33,3.33,0,0,0,3.41-2.3h.66a4,4,0,0,1-4.07,2.92,4.59,4.59,0,0,1-.11-9.17,4.53,4.53,0,0,1,4.37,4.59Zm7.42-.63a3.83,3.83,0,0,0-3.69-3.31,3.77,3.77,0,0,0-3.66,3.31Z"/><path class="cls-2" d="M45.45,58.9h-.68l-3.36-8.75h.68l3,7.88,3-7.88h.68Z"/><path class="cls-2" d="M49.51,54.52a3.86,3.86,0,0,0,3.84,4,3.31,3.31,0,0,0,3.41-2.3h.67a4,4,0,0,1-4.08,2.92,4.59,4.59,0,0,1-.1-9.17,4.52,4.52,0,0,1,4.36,4.59Zm7.42-.63a3.7,3.7,0,0,0-7.35,0Z"/><path class="cls-2" d="M66.31,58.9h-.63V53.62a2.75,2.75,0,0,0-3-3.08,3.05,3.05,0,0,0-3.14,3.08V58.9H59V50.15h.63v1.48a3.62,3.62,0,0,1,3.16-1.7,3.35,3.35,0,0,1,3.57,3.69Z"/><path class="cls-2" d="M69.09,55.88c0,1.49.7,2.51,2.36,2.44v.58c-1.88.17-3-1.07-3-3v-5.1H67.28v-.63h1.18V48.29h.63v1.86h2.36v.63H69.09Z"/><path class="cls-2" d="M79.21,58.9A3,3,0,0,1,79,57.63v-.17a4.48,4.48,0,0,1-3.77,1.59c-1.53,0-3.18-.76-3.18-2.44,0-2,1.85-2.45,3.72-2.62S79,53.6,79,52.53c0-1.61-1.53-2-2.82-2a2.85,2.85,0,0,0-3,1.85h-.64c.39-1.56,1.7-2.46,3.67-2.46,2.19,0,3.45,1,3.45,2.6v4.94a4.55,4.55,0,0,0,.25,1.43ZM79,53.72a5.6,5.6,0,0,1-3.16.85c-2.24.22-3.11.81-3.11,2,0,1.44,1.63,1.83,2.5,1.83,1.88,0,3.77-.84,3.77-2.7Z"/></svg>