<svg id="Layer_1" data-name="Layer 1" xmlns="http://www.w3.org/2000/svg" viewBox="0 0 131.95 33.9"><defs><style>.cls-1{fill:#2fa7df;}.cls-2{fill:#fff;}</style></defs><rect class="cls-1" width="131.95" height="33.9"/><path class="cls-2" d="M21.63,12a.59.59,0,0,0-.65-.62H12a.62.62,0,1,0,0,1.24h1.31a.8.8,0,0,1,.79.79v8.24a.79.79,0,0,0,.79.79H18.1a.8.8,0,0,0,.79-.79V13.45a.79.79,0,0,1,.79-.79H21A.59.59,0,0,0,21.63,12Z"/><path class="cls-2" d="M42.16,11.42c-.31,0-.56.22-.56.65v1.85a.51.51,0,0,1-.74.51L33.5,11.7a3.76,3.76,0,0,0-1.3-.28.77.77,0,0,0-.56.79v9.62c0,.43.25.65.56.65s.56-.22.56-.65V20a.51.51,0,0,1,.74-.51l7.36,2.74a4.36,4.36,0,0,0,1.3.28c.3,0,.55-.36.55-.79V12.07C42.71,11.64,42.46,11.42,42.16,11.42Z"/><path class="cls-2" d="M66.46,17a5.65,5.65,0,1,1-5.65-5.65A5.65,5.65,0,0,1,66.46,17Z"/><path class="cls-2" d="M49.42,15.23a.45.45,0,0,1-.45-.45v-3a3.49,3.49,0,0,0,0-.44h0A5.65,5.65,0,1,0,54.61,17a6.37,6.37,0,0,0-.17-1.29.58.58,0,0,0-.54-.43Z"/><path class="cls-2" d="M26,21.05a1.13,1.13,0,0,1,.92.56l.17.31a1.15,1.15,0,0,0,.93.56h2.76a.35.35,0,0,0,.33-.56L25.72,11.63c-.16-.31-.43-.31-.59,0L19.7,21.92a.35.35,0,0,0,.34.56h.23a.9.9,0,0,0,.85-.41l.24-.46a1.15,1.15,0,0,1,.93-.56Z"/><path class="cls-2" d="M80.15,21.12a3.88,3.88,0,0,1-4,4.19,3.68,3.68,0,0,1-3.78-2.66H73a3.14,3.14,0,0,0,3.17,2.07,3.29,3.29,0,0,0,3.41-3.6V19.45a3.81,3.81,0,0,1-3.45,2.1,4.15,4.15,0,0,1-4-4.24,4.17,4.17,0,0,1,4-4.28,3.8,3.8,0,0,1,3.45,2.11v-1.9h.58Zm-4-7.49a3.58,3.58,0,0,0-3.46,3.68A3.56,3.56,0,0,0,76.12,21a3.43,3.43,0,0,0,3.45-3.64A3.45,3.45,0,0,0,76.12,13.63Z"/><path class="cls-2" d="M81.9,17.28A3.57,3.57,0,0,0,85.45,21a3.1,3.1,0,0,0,3.17-2.13h.61a3.69,3.69,0,0,1-3.78,2.71,4.14,4.14,0,0,1-4.13-4.22,4,4,0,1,1,8.08,0Zm6.87-.58a3.42,3.42,0,0,0-6.81,0Z"/><path class="cls-2" d="M96.21,20.59a3.73,3.73,0,0,1-2.67.94c-2.05,0-3.5-.9-3.76-2.55h.58c.28,1.31,1.45,2,3.16,2a3.19,3.19,0,0,0,2.27-.8,1.47,1.47,0,0,0,.39-1.12c0-1-.83-1.5-2.82-1.78-1.4-.2-3.13-.44-3.16-2,0-1.1,1-2.21,3.07-2.21,1.79,0,3,.81,3.32,2.27H96a2.53,2.53,0,0,0-2.7-1.72c-1.47,0-2.51.71-2.49,1.66s.86,1.22,2.66,1.48,3.24.69,3.32,2.32A2.15,2.15,0,0,1,96.21,20.59Z"/><path class="cls-2" d="M98.82,18.54c0,1.38.65,2.33,2.19,2.27v.53c-1.75.16-2.77-1-2.77-2.8V13.82h-1.1v-.58h1.1V11.51h.58v1.73H101v.58H98.82Z"/><path class="cls-2" d="M102.86,11.87h-.58V10.42h.58Zm0,9.47h-.58v-8.1h.58Z"/><path class="cls-2" d="M112.29,17.31a4.05,4.05,0,1,1-8.1,0,4.06,4.06,0,1,1,8.1,0Zm-.6,0a3.47,3.47,0,1,0-6.92,0,3.47,3.47,0,1,0,6.92,0ZM108.62,12H108l1.3-1.6H110Z"/><path class="cls-2" d="M120.34,21.34h-.58V16.45A2.54,2.54,0,0,0,117,13.6a2.83,2.83,0,0,0-2.91,2.85v4.89h-.58v-8.1h.58v1.37A3.34,3.34,0,0,1,117,13a3.1,3.1,0,0,1,3.3,3.42Z"/></svg>