<svg id="Layer_1" data-name="Layer 1" xmlns="http://www.w3.org/2000/svg" viewBox="0 0 185.13 33.9"><defs><style>.cls-1{fill:#fff;}.cls-2{fill:#2fa7df;}</style></defs><rect class="cls-1" width="185.13" height="33.9"/><path class="cls-2" d="M21.63,12a.59.59,0,0,0-.65-.62H12a.62.62,0,1,0,0,1.24h1.31a.8.8,0,0,1,.79.79v8.24a.79.79,0,0,0,.79.79H18.1a.8.8,0,0,0,.79-.79V13.45a.79.79,0,0,1,.79-.79H21A.59.59,0,0,0,21.63,12Z"/><path class="cls-2" d="M42.16,11.42c-.31,0-.56.22-.56.65v1.85a.51.51,0,0,1-.74.51L33.5,11.7a3.76,3.76,0,0,0-1.3-.28.77.77,0,0,0-.56.79v9.62c0,.43.25.65.56.65s.56-.22.56-.65V20a.51.51,0,0,1,.74-.51l7.36,2.74a4.36,4.36,0,0,0,1.3.28c.3,0,.55-.36.55-.79V12.07C42.71,11.64,42.46,11.42,42.16,11.42Z"/><path class="cls-2" d="M66.46,17a5.65,5.65,0,1,1-5.65-5.65A5.65,5.65,0,0,1,66.46,17Z"/><path class="cls-2" d="M49.42,15.23a.45.45,0,0,1-.45-.45v-3a3.49,3.49,0,0,0,0-.44h0A5.65,5.65,0,1,0,54.61,17a6.37,6.37,0,0,0-.17-1.29.58.58,0,0,0-.54-.43Z"/><path class="cls-2" d="M26,21.05a1.13,1.13,0,0,1,.92.56l.17.31a1.15,1.15,0,0,0,.93.56h2.76a.35.35,0,0,0,.33-.56L25.72,11.63c-.16-.31-.43-.31-.59,0L19.7,21.92a.35.35,0,0,0,.34.56h.23a.9.9,0,0,0,.85-.41l.24-.46a1.15,1.15,0,0,1,.93-.56Z"/><path class="cls-2" d="M76.68,21.53a4,4,0,0,1-3.47-2.14v5.55h-.58V13.24h.58v2A3.94,3.94,0,0,1,76.68,13a4.18,4.18,0,0,1,4,4.28A4.14,4.14,0,0,1,76.68,21.53Zm0-7.9a3.67,3.67,0,0,0,0,7.32,3.55,3.55,0,0,0,3.46-3.64A3.57,3.57,0,0,0,76.68,13.63Z"/><path class="cls-2" d="M88.72,21.34h-.58V20a3.13,3.13,0,0,1-2.83,1.53,3.29,3.29,0,0,1-3.4-3.4V13.24h.59v4.89a2.82,2.82,0,1,0,5.64,0V13.24h.58Z"/><path class="cls-2" d="M97.49,21.34H96.9V16.45a2.54,2.54,0,0,0-2.73-2.85,2.82,2.82,0,0,0-2.91,2.85v4.89h-.59v-8.1h.59v1.37A3.33,3.33,0,0,1,94.18,13a3.1,3.1,0,0,1,3.31,3.42Z"/><path class="cls-2" d="M100.07,18.54c0,1.38.64,2.33,2.18,2.27v.53c-1.74.16-2.77-1-2.77-2.8V13.82h-1.1v-.58h1.1V11.51h.59v1.73h2.18v.58h-2.18Z"/><path class="cls-2" d="M110.76,17.31a4.05,4.05,0,1,1-8.1,0,4.06,4.06,0,1,1,8.1,0Zm-.6,0a3.47,3.47,0,1,0-6.92,0,3.47,3.47,0,1,0,6.92,0Z"/><path class="cls-2" d="M123.71,21.34h-.58V19.39a3.93,3.93,0,0,1-3.47,2.14,4.13,4.13,0,0,1-4-4.22,4.17,4.17,0,0,1,4-4.28,3.92,3.92,0,0,1,3.47,2.17V9.64h.58Zm-4-7.71a3.67,3.67,0,1,0,3.47,3.68A3.58,3.58,0,0,0,119.66,13.63Z"/><path class="cls-2" d="M125.53,17.28A3.57,3.57,0,0,0,129.09,21a3.08,3.08,0,0,0,3.16-2.13h.61a3.67,3.67,0,0,1-3.77,2.71A4.14,4.14,0,0,1,125,17.31a4.05,4.05,0,1,1,8.09,0Zm6.88-.58A3.56,3.56,0,0,0,129,13.63a3.51,3.51,0,0,0-3.4,3.07Z"/><path class="cls-2" d="M141.29,21.34h-.63l-3.11-8.1h.63l2.8,7.3,2.8-7.3h.63Z"/><path class="cls-2" d="M145.05,17.28A3.57,3.57,0,0,0,148.61,21a3.08,3.08,0,0,0,3.16-2.13h.61a3.67,3.67,0,0,1-3.77,2.71,4.14,4.14,0,0,1-4.14-4.22,4.05,4.05,0,1,1,8.09,0Zm6.88-.58a3.56,3.56,0,0,0-3.42-3.07,3.51,3.51,0,0,0-3.4,3.07Z"/><path class="cls-2" d="M160.61,21.34H160V16.45a2.54,2.54,0,0,0-2.74-2.85,2.82,2.82,0,0,0-2.91,2.85v4.89h-.58v-8.1h.58v1.37A3.34,3.34,0,0,1,157.31,13a3.1,3.1,0,0,1,3.3,3.42Z"/><path class="cls-2" d="M163.19,18.54c0,1.38.64,2.33,2.18,2.27v.53c-1.74.16-2.76-1-2.76-2.8V13.82H161.5v-.58h1.11V11.51h.58v1.73h2.18v.58h-2.18Z"/><path class="cls-2" d="M172.56,21.34a2.76,2.76,0,0,1-.22-1.18V20a4.1,4.1,0,0,1-3.49,1.48c-1.42,0-2.94-.71-2.94-2.26,0-1.84,1.71-2.27,3.44-2.43s3-.36,3-1.35c0-1.49-1.41-1.84-2.61-1.84a2.62,2.62,0,0,0-2.8,1.72h-.6c.37-1.45,1.58-2.29,3.4-2.29,2,0,3.2.88,3.2,2.41V20a4.44,4.44,0,0,0,.23,1.32Zm-.22-4.8a5.26,5.26,0,0,1-2.92.79c-2.08.2-2.88.75-2.88,1.87,0,1.34,1.51,1.7,2.31,1.7,1.75,0,3.49-.79,3.49-2.5Z"/></svg>