<svg id="Layer_1" data-name="Layer 1" xmlns="http://www.w3.org/2000/svg" viewBox="0 0 97.72 71.34"><defs><style>.cls-1{fill:#fff;}.cls-2{fill:#e31937;}</style></defs><polygon class="cls-1" points="97.82 0 0 0 -0.11 71.34 97.72 71.34 97.82 0"/><path class="cls-2" d="M31.64,17a.6.6,0,0,0-.65-.62H22a.62.62,0,1,0,0,1.24h1.3a.79.79,0,0,1,.79.79v8.22a.8.8,0,0,0,.8.79h3.25a.8.8,0,0,0,.79-.79V18.42a.79.79,0,0,1,.79-.79H31A.6.6,0,0,0,31.64,17Z"/><path class="cls-2" d="M52.13,16.39c-.31,0-.56.21-.56.65v1.84a.51.51,0,0,1-.74.51l-7.34-2.73a3.71,3.71,0,0,0-1.3-.27.75.75,0,0,0-.56.79v9.6c0,.43.25.65.56.65a.57.57,0,0,0,.56-.65V24.92a.51.51,0,0,1,.74-.51l7.34,2.74a4.36,4.36,0,0,0,1.3.28c.31,0,.56-.36.56-.79V17C52.69,16.6,52.44,16.39,52.13,16.39Z"/><path class="cls-2" d="M76.4,21.91a5.65,5.65,0,1,1-5.65-5.64A5.64,5.64,0,0,1,76.4,21.91Z"/><path class="cls-2" d="M59.38,20.19a.45.45,0,0,1-.44-.45v-3c0-.24,0-.44,0-.44h0a5.64,5.64,0,1,0,5.64,5.64,6.74,6.74,0,0,0-.16-1.29.59.59,0,0,0-.55-.43Z"/><path class="cls-2" d="M36,26a1.15,1.15,0,0,1,.92.56l.16.31a1.16,1.16,0,0,0,.93.56H40.8c.35,0,.5-.25.33-.56L35.72,16.59c-.16-.3-.43-.3-.59,0L29.71,26.87a.35.35,0,0,0,.34.56h.22a.91.91,0,0,0,.86-.41l.23-.46a1.16,1.16,0,0,1,.93-.56Z"/><path class="cls-2" d="M33.66,37.64a3.94,3.94,0,0,0-3.16.92,3.75,3.75,0,0,0-1.18,2.84v6.45h-.79V37.16h.79V39a3.7,3.7,0,0,1,.7-1,4.53,4.53,0,0,1,3.64-1.05Z"/><path class="cls-2" d="M34.13,42.5a4.7,4.7,0,0,0,4.69,4.83A4.06,4.06,0,0,0,43,44.53h.81a4.85,4.85,0,0,1-5,3.57,5.6,5.6,0,0,1-.12-11.2A5.52,5.52,0,0,1,44,42.5Zm9.07-.77a4.68,4.68,0,0,0-4.5-4,4.63,4.63,0,0,0-4.48,4Z"/><path class="cls-2" d="M53,46.86a4.88,4.88,0,0,1-3.53,1.24c-2.7,0-4.6-1.18-5-3.36h.77c.37,1.72,1.91,2.63,4.17,2.63a4.17,4.17,0,0,0,3-1A2,2,0,0,0,53,44.84c0-1.3-1.1-2-3.72-2.34-1.84-.27-4.13-.58-4.17-2.7,0-1.45,1.37-2.9,4-2.9,2.37,0,3.92,1.05,4.38,3h-.79c-.44-1.43-1.66-2.26-3.57-2.26s-3.3.94-3.28,2.18,1.14,1.62,3.51,2,4.27.91,4.38,3.07A2.83,2.83,0,0,1,53,46.86Z"/><path class="cls-2" d="M56.47,44.16c0,1.83.85,3.07,2.88,3v.7c-2.3.21-3.65-1.31-3.65-3.69V37.93H54.25v-.77H55.7V34.88h.77v2.28h2.88v.77H56.47Z"/><path class="cls-2" d="M70.58,42.54a5.35,5.35,0,1,1-5.35-5.64A5.47,5.47,0,0,1,70.58,42.54Zm-.79,0a4.57,4.57,0,1,0-4.56,4.83A4.74,4.74,0,0,0,69.79,42.54Zm-5.1-9h.93l1.68,2.06h-.93l-1.23-1.54-1.2,1.54H63Z"/></svg>